<?xml version="1.0" encoding="UTF-8" standalone="no"?>
<!-- Created with Inkscape (http://www.inkscape.org/) -->

<svg
   xmlns:dc="http://purl.org/dc/elements/1.1/"
   xmlns:cc="http://creativecommons.org/ns#"
   xmlns:rdf="http://www.w3.org/1999/02/22-rdf-syntax-ns#"
   xmlns:svg="http://www.w3.org/2000/svg"
   xmlns="http://www.w3.org/2000/svg"
   xmlns:sodipodi="http://sodipodi.sourceforge.net/DTD/sodipodi-0.dtd"
   xmlns:inkscape="http://www.inkscape.org/namespaces/inkscape"
   id="svg2"
   version="1.1"
   inkscape:version="0.91 r13725"
   width="55.506008"
   height="39.549885"
   sodipodi:docname="smoothieboard-logo.svg"
   inkscape:export-filename="smoothieboard-logo.png"
   inkscape:export-xdpi="600.01044"
   inkscape:export-ydpi="600.01044">
  <title
     id="title6397">smoothieboard</title>
  <metadata
     id="metadata8">
    <rdf:RDF>
      <cc:Work
         rdf:about="">
        <dc:format>image/svg+xml</dc:format>
        <dc:type
           rdf:resource="http://purl.org/dc/dcmitype/StillImage" />
        <dc:title>smoothieboard</dc:title>
        <dc:date>08.01.2015</dc:date>
        <dc:creator>
          <cc:Agent>
            <dc:title>Bouni</dc:title>
          </cc:Agent>
        </dc:creator>
        <dc:rights>
          <cc:Agent>
            <dc:title />
          </cc:Agent>
        </dc:rights>
        <dc:publisher>
          <cc:Agent>
            <dc:title>Bouni</dc:title>
          </cc:Agent>
        </dc:publisher>
        <dc:subject>
          <rdf:Bag>
            <rdf:li>Smoothieboard</rdf:li>
          </rdf:Bag>
        </dc:subject>
        <dc:contributor>
          <cc:Agent>
            <dc:title>Bouni</dc:title>
          </cc:Agent>
        </dc:contributor>
        <cc:license
           rdf:resource="http://creativecommons.org/licenses/by-sa/3.0/" />
      </cc:Work>
      <cc:License
         rdf:about="http://creativecommons.org/licenses/by-sa/3.0/">
        <cc:permits
           rdf:resource="http://creativecommons.org/ns#Reproduction" />
        <cc:permits
           rdf:resource="http://creativecommons.org/ns#Distribution" />
        <cc:requires
           rdf:resource="http://creativecommons.org/ns#Notice" />
        <cc:requires
           rdf:resource="http://creativecommons.org/ns#Attribution" />
        <cc:permits
           rdf:resource="http://creativecommons.org/ns#DerivativeWorks" />
        <cc:requires
           rdf:resource="http://creativecommons.org/ns#ShareAlike" />
      </cc:License>
    </rdf:RDF>
  </metadata>
  <defs
     id="defs6" />
  <sodipodi:namedview
     pagecolor="#ffffff"
     bordercolor="#666666"
     borderopacity="1"
     objecttolerance="10"
     gridtolerance="10"
     guidetolerance="10"
     inkscape:pageopacity="0"
     inkscape:pageshadow="2"
     inkscape:window-width="1680"
     inkscape:window-height="1028"
     id="namedview4"
     showgrid="false"
     inkscape:snap-page="true"
     inkscape:zoom="5.6568544"
     inkscape:cx="8.3937549"
     inkscape:cy="28.939785"
     inkscape:window-x="1272"
     inkscape:window-y="-8"
     inkscape:window-maximized="1"
     inkscape:current-layer="layer2"
     showguides="true"
     inkscape:guide-bbox="true"
     inkscape:snap-center="true"
     inkscape:object-nodes="true"
     inkscape:snap-smooth-nodes="false"
     inkscape:snap-object-midpoints="true"
     inkscape:object-paths="true"
     inkscape:snap-intersection-paths="true"
     inkscape:snap-global="true"
     inkscape:snap-bbox="true"
     inkscape:snap-bbox-midpoints="true"
     inkscape:snap-bbox-edge-midpoints="true"
     fit-margin-top="5"
     fit-margin-left="5"
     fit-margin-right="5"
     fit-margin-bottom="5"
     inkscape:document-units="mm" />
  <g
     inkscape:groupmode="layer"
     id="layer2"
     inkscape:label="board"
     style="display:inline"
     transform="translate(-515.01257,-462.97494)">
    <path
       style="display:inline;fill:#000000;fill-opacity:1"
       d="m 532.80953,497.27101 c 0.13282,-0.10492 0.2388,-0.24726 0.2589,-0.34782 0.0188,-0.0935 0.0675,-0.17025 0.10819,-0.17025 0.0409,0 0.10727,-0.0402 0.1478,-0.0888 0.0408,-0.049 0.11774,-0.0888 0.17159,-0.0888 0.054,0 0.16806,-0.0798 0.25374,-0.17754 0.0857,-0.0977 0.20622,-0.17757 0.26789,-0.17757 0.0618,0 0.20242,-0.0932 0.31286,-0.2071 0.1104,-0.11393 0.22394,-0.20715 0.25227,-0.20715 0.13074,0 0.79363,-0.66513 1.05505,-1.05864 0.1598,-0.2405 0.29053,-0.45694 0.29053,-0.481 0,-0.0241 0.0401,-0.0768 0.0889,-0.11739 0.0489,-0.0407 0.0888,-0.13549 0.0888,-0.21101 0,-0.14439 0.21691,-0.55835 0.29257,-0.55835 0.0243,0 0.0923,0.0534 0.15126,0.11835 0.0592,0.0652 0.14315,0.11836 0.18716,0.11836 0.0441,0 0.29672,0.21874 0.56157,0.48611 0.44774,0.45194 0.50902,0.49302 0.87249,0.58485 0.21502,0.0545 0.68387,0.11727 1.04192,0.1399 l 0.65099,0.0413 0.20712,-0.20492 c 0.27211,-0.2692 0.44633,-0.50953 0.50172,-0.69199 0.0248,-0.0813 0.0788,-0.1879 0.12031,-0.23671 0.0417,-0.0489 0.0945,-0.26188 0.11798,-0.47346 0.0235,-0.21156 0.0649,-0.41253 0.0923,-0.44656 0.061,-0.0756 -0.0451,-1.85669 -0.12992,-2.1865 -0.0338,-0.13047 -0.0749,-0.31708 -0.0919,-0.41473 -0.0425,-0.24462 -0.29609,-0.78631 -0.48411,-1.03397 -0.0858,-0.11298 -0.24095,-0.33602 -0.34485,-0.49565 -0.10384,-0.15961 -0.27031,-0.33973 -0.36988,-0.40027 -0.0996,-0.0606 -0.181,-0.13349 -0.181,-0.16209 0,-0.0286 -0.10126,-0.12222 -0.22511,-0.20799 -0.25564,-0.17718 -0.69376,-0.20948 -1.18022,-0.087 -0.27036,0.068 -0.72485,0.41933 -0.72506,0.56034 -4e-5,0.0371 -0.0656,0.11 -0.14527,0.16231 -0.19381,0.12698 -0.25072,0.43724 -0.12487,0.68063 0.0992,0.19166 0.20024,0.23087 0.31067,0.12043 0.0655,-0.0654 0.67695,-0.0456 1.08381,0.0354 0.19707,0.0394 0.6265,0.21515 1.05486,0.4323 0.24401,0.12369 0.62569,0.69276 0.76116,1.13478 0.13125,0.42833 0.14424,1.50566 0.0212,1.75169 -0.13765,0.27501 -0.2439,0.37591 -0.52846,0.50179 -0.28604,0.12655 -0.54266,0.11862 -1.07744,-0.0333 -0.4702,-0.13355 -0.74378,-0.30848 -0.94224,-0.60252 -0.24685,-0.36577 -0.44921,-0.82905 -0.5029,-1.15131 -0.0238,-0.14224 -0.0931,-0.35744 -0.15435,-0.47819 -0.0613,-0.12077 -0.11124,-0.29999 -0.11124,-0.3983 0,-0.0983 -0.0396,-0.2791 -0.0879,-0.40182 -0.0994,-0.25244 -0.11596,-0.41241 -0.10055,-0.96954 0.009,-0.33686 0.0357,-0.42242 0.1884,-0.61471 0.2177,-0.27399 0.24201,-0.58274 0.054,-0.68348 -0.068,-0.0366 -0.317,-0.0808 -0.55321,-0.0988 l -0.42945,-0.0326 -0.16517,0.2166 c -0.18933,0.24821 -0.25245,0.48971 -0.33413,1.27863 -0.041,0.39463 -0.039,0.63278 0.007,0.79896 0.10739,0.39075 0.12074,1.07922 0.0226,1.16071 -0.0666,0.0555 -0.11236,0.0434 -0.21938,-0.0573 -0.0744,-0.0699 -0.19188,-0.12703 -0.26108,-0.12703 -0.0693,0 -0.14232,-0.0266 -0.16244,-0.0593 -0.0566,-0.0913 -0.86329,-0.0711 -1.05013,0.0263 -0.0894,0.0467 -0.28907,0.10258 -0.44386,0.1244 -0.15478,0.0219 -0.34133,0.0773 -0.41458,0.12339 -0.1195,0.0751 -0.13312,0.0729 -0.1328,-0.0212 0,-0.0579 0.036,-0.17282 0.0791,-0.25581 0.0433,-0.083 0.0954,-0.32266 0.11594,-0.53263 0.0205,-0.20995 0.0915,-0.52782 0.15762,-0.70639 0.13723,-0.37005 0.14868,-0.54929 0.0535,-0.83533 -0.0788,-0.23632 -0.24828,-0.38833 -0.49459,-0.44346 -0.10119,-0.0227 -0.27168,-0.14727 -0.39821,-0.29103 -0.21292,-0.24189 -0.23188,-0.25028 -0.50359,-0.22288 -0.15532,0.0156 -0.38305,0.079 -0.50611,0.14079 -0.15017,0.0753 -0.34849,0.11238 -0.60311,0.11238 -0.20863,0 -0.39581,0.0266 -0.41594,0.0592 -0.0202,0.0326 -0.10572,0.0592 -0.19022,0.0592 -0.17869,0 -0.38523,0.14723 -1.09645,0.78148 -0.28453,0.25371 -0.55695,0.46131 -0.6054,0.46131 -0.0486,0 -0.14065,0.10312 -0.20496,0.22915 -0.0643,0.12601 -0.17104,0.24327 -0.2372,0.26058 -0.1286,0.0337 -0.2302,0.23996 -0.28329,0.57552 -0.018,0.11392 -0.10729,0.31004 -0.19833,0.43583 -0.14613,0.20188 -0.16158,0.26439 -0.13144,0.53262 0.042,0.37344 0.0705,0.41143 0.3869,0.51502 0.405,0.13262 0.81247,0.59952 1.17206,1.343 0.16908,0.34957 0.32914,0.67553 0.3557,0.72437 0.0265,0.0489 0.15947,0.30762 0.29539,0.57512 0.13591,0.26748 0.28246,0.51566 0.32563,0.5515 0.0432,0.036 0.0957,0.14316 0.11657,0.23846 0.0393,0.17817 0.90076,1.1205 1.02457,1.1205 0.0363,0 0.28621,0.20035 0.55577,0.44523 l 0.49014,0.44521 0.29588,-0.0384 c 0.19887,-0.0257 0.36964,-0.0965 0.52078,-0.21581 z m -0.66799,-1.92383 c -0.14607,-0.18705 -0.3946,-0.51317 -0.55228,-0.72475 -0.15769,-0.21156 -0.33554,-0.43024 -0.39527,-0.48593 -0.15309,-0.14282 -0.0868,-0.3237 0.18054,-0.49245 0.12304,-0.0776 0.24082,-0.16895 0.26177,-0.20282 0.021,-0.034 0.10149,-0.0616 0.17902,-0.0616 0.0775,0 0.15563,-0.0238 0.17355,-0.0529 0.0179,-0.029 0.25251,-0.16249 0.52133,-0.2966 0.2688,-0.13416 0.60815,-0.31014 0.75413,-0.39114 0.29917,-0.16599 0.60121,-0.19085 0.71108,-0.0585 0.0407,0.049 0.11142,0.0888 0.15755,0.0888 0.10921,0 0.53322,0.21667 0.58364,0.29822 0.0496,0.08 -0.24663,0.68954 -0.43009,0.88539 -0.0761,0.0813 -0.48367,0.50223 -0.9054,0.93522 -0.42178,0.43299 -0.76687,0.81248 -0.76687,0.84333 0,0.15935 -0.23789,0.0162 -0.4727,-0.28447 z m -2.36671,-3.49143 c -0.066,-0.12203 -0.1968,-0.31513 -0.29126,-0.42904 -0.2644,-0.31898 -0.27575,-0.43158 -0.0675,-0.66875 0.0991,-0.11274 0.18063,-0.24142 0.18142,-0.28596 0.002,-0.1083 0.81839,-1.11764 0.93913,-1.16093 0.0524,-0.0188 0.1617,-0.0791 0.24305,-0.1343 0.0939,-0.0637 0.32764,-0.11355 0.64041,-0.1368 0.4675,-0.0349 0.4998,-0.0293 0.63719,0.10813 0.12722,0.12718 0.14148,0.18424 0.11779,0.47084 -0.035,0.4233 -0.27147,0.88908 -0.58541,1.153 -0.13626,0.11458 -0.40753,0.35868 -0.60284,0.54245 -0.19529,0.18377 -0.43505,0.37472 -0.53276,0.4243 -0.0978,0.0497 -0.22837,0.14614 -0.29029,0.21456 -0.16111,0.17804 -0.25289,0.15502 -0.38891,-0.0976 z m 12.64463,2.25454 c 0.1142,-0.0544 0.27352,-0.20613 0.35687,-0.3403 0.16133,-0.25982 0.18275,-0.28333 1.09532,-1.20407 0.33073,-0.33363 0.62524,-0.60659 0.65456,-0.60659 0.0727,0 0.58826,-0.524 0.71331,-0.72497 0.0559,-0.0896 0.12944,-0.16275 0.16391,-0.16275 0.0345,0 0.17639,-0.0932 0.31541,-0.20712 0.13904,-0.11393 0.27128,-0.20714 0.29393,-0.20714 0.084,0 0.33973,0.34142 0.6563,0.87625 0.17933,0.30291 0.32604,0.57173 0.32604,0.59743 0,0.0257 0.0472,0.0893 0.10457,0.1413 0.0921,0.0834 0.15699,0.0859 0.5474,0.0208 l 0.44286,-0.0738 0.0558,-0.24836 c 0.0693,-0.3086 0.22329,-0.33501 0.32662,-0.0562 0.1197,0.32307 0.15527,0.36607 0.33344,0.40271 0.0946,0.0195 0.23008,0.0667 0.30115,0.10484 0.0712,0.0384 0.19436,0.0695 0.27387,0.0695 0.0795,0 0.17777,0.0402 0.21828,0.0888 0.0971,0.11695 0.28963,0.11278 0.4244,-0.009 0.18791,-0.17005 0.10797,-0.99123 -0.11857,-1.21776 -0.0381,-0.0382 -0.0692,-0.11487 -0.0692,-0.17076 0,-0.0561 -0.0666,-0.23422 -0.14796,-0.39623 -0.0813,-0.16204 -0.14795,-0.32281 -0.14795,-0.35734 0,-0.0346 -0.0666,-0.16084 -0.14794,-0.28075 -0.0813,-0.11992 -0.14795,-0.26431 -0.14795,-0.32089 0,-0.0567 -0.0401,-0.13601 -0.0889,-0.17653 -0.0489,-0.0407 -0.0888,-0.13375 -0.0888,-0.2072 0,-0.16002 0.17022,-0.23925 0.68564,-0.3191 0.19811,-0.0308 0.461,-0.098 0.58424,-0.14942 0.25047,-0.10465 0.7156,-0.12539 0.77182,-0.0345 0.0202,0.0326 0.17485,0.0594 0.3438,0.0596 0.16895,0 0.37627,0.0366 0.46067,0.0804 0.19351,0.101 0.49326,0.15756 1.00508,0.1897 0.38831,0.0245 0.4059,0.0195 0.52413,-0.14656 0.0673,-0.0945 0.12233,-0.22229 0.12233,-0.28398 0,-0.0618 0.0244,-0.13747 0.0545,-0.16841 0.0299,-0.0309 0.0632,-0.28012 0.074,-0.5538 l 0.0197,-0.49757 -0.3255,-0.0768 c -0.17902,-0.0425 -0.43709,-0.078 -0.57351,-0.0794 -0.13641,-10e-4 -0.26479,-0.0298 -0.2853,-0.063 -0.0205,-0.0333 -0.13524,-0.0589 -0.255,-0.0568 -0.11976,0.002 -0.69664,0.004 -1.28199,0.005 -0.61789,0.001 -1.09408,0.0265 -1.13535,0.0609 -0.0394,0.0326 -0.15056,0.0507 -0.24769,0.0403 l -0.17657,-0.0188 0.19909,-0.3255 c 0.4583,-0.74927 0.55037,-0.93744 0.65146,-1.33156 0.0586,-0.22784 0.12966,-0.44508 0.15831,-0.48275 0.054,-0.0709 0.14328,-0.49871 0.20318,-0.97262 0.0289,-0.22719 0.009,-0.31215 -0.12097,-0.51782 -0.10001,-0.15831 -0.19868,-0.24606 -0.27683,-0.24606 -0.0667,0 -0.16639,-0.0238 -0.2212,-0.0531 -0.055,-0.0291 -0.42503,-0.0825 -0.82267,-0.11861 -0.67581,-0.0615 -0.74915,-0.0577 -1.1244,0.06 -0.44205,0.13845 -0.72395,0.26568 -1.17081,0.52851 -0.49776,0.29277 -0.82345,0.43969 -0.93362,0.42119 -0.0579,-0.01 -0.18634,0.0509 -0.28564,0.13431 -0.0994,0.0836 -0.23634,0.15192 -0.30451,0.15192 -0.35008,0 -0.45411,0.4611 -0.18397,0.8153 0.15914,0.20865 0.73125,1.29226 0.73125,1.38502 0,0.028 0.0607,0.15021 0.13459,0.27162 0.0741,0.12142 0.17049,0.32728 0.21445,0.45749 0.11852,0.35127 0.63998,1.43239 0.71251,1.47721 0.0348,0.0214 0.063,0.0992 0.063,0.173 0,0.0738 0.0693,0.19872 0.15391,0.27762 0.0846,0.0788 0.23051,0.29466 0.32416,0.47945 0.0936,0.18479 0.19751,0.35281 0.23078,0.37337 0.0731,0.0451 0.0814,0.26713 0.0102,0.26713 -0.11025,0 -0.53538,-0.36031 -0.96597,-0.81867 -0.24971,-0.26582 -0.48008,-0.48331 -0.51191,-0.48331 -0.23771,0 -2.43691,-2.19145 -2.43691,-2.42836 0,-0.0501 -0.0896,-0.22971 -0.19892,-0.39949 -0.13022,-0.20217 -0.21128,-0.41344 -0.2348,-0.61209 -0.0198,-0.16687 -0.0767,-0.36566 -0.12661,-0.44178 -0.05,-0.076 -0.0906,-0.20293 -0.0906,-0.28184 0,-0.0789 -0.047,-0.20146 -0.10429,-0.2723 -0.0923,-0.11402 -0.13988,-0.1241 -0.41369,-0.0878 -0.27265,0.0364 -0.3373,0.0734 -0.54456,0.31459 -0.12934,0.15045 -0.30271,0.34375 -0.38526,0.42948 -0.0991,0.10289 -0.15053,0.22371 -0.15147,0.35509 -6.2e-4,0.10954 -0.0249,0.30051 -0.0539,0.42443 -0.0288,0.12391 -0.0611,0.80225 -0.072,1.50743 -0.0177,1.16287 -0.08,1.89599 -0.17471,2.05485 -0.0194,0.0327 -0.0399,0.81383 -0.0451,1.73621 l -0.01,1.67707 0.18249,0.17044 c 0.10036,0.0937 0.20885,0.26599 0.24109,0.38277 0.0875,0.31666 0.37041,0.40285 0.74266,0.22619 z m 0.24893,-3.05347 c -0.004,-0.13833 -0.014,-0.41129 -0.0232,-0.60659 -0.009,-0.19531 0.004,-0.435 0.0308,-0.53263 0.0261,-0.0977 0.0887,-0.32402 0.13908,-0.50304 0.13373,-0.47428 0.16945,-0.69599 0.1779,-1.10428 0.004,-0.20051 0.0235,-0.38062 0.043,-0.40028 0.0366,-0.037 0.72168,0.57449 1.43447,1.27975 l 0.40458,0.40025 -0.16785,0.0722 c -0.0922,0.0398 -0.31574,0.20659 -0.49651,0.37093 -0.18075,0.16431 -0.52149,0.45856 -0.75718,0.65384 -0.23567,0.19531 -0.46789,0.41501 -0.51603,0.48826 -0.14461,0.22005 -0.26139,0.16863 -0.26884,-0.11837 z m 5.01553,-3.63627 c -0.0209,-0.0208 -0.038,-0.0746 -0.038,-0.1196 0,-0.045 -0.0931,-0.22746 -0.20712,-0.40555 -0.11394,-0.1781 -0.20713,-0.35096 -0.20713,-0.38418 0,-0.0334 -0.0509,-0.15983 -0.11275,-0.28138 -0.14952,-0.29308 -0.0762,-0.46711 0.40254,-0.95644 0.19864,-0.20301 0.36119,-0.38987 0.36119,-0.41519 0,-0.0941 0.27722,-0.22007 0.63817,-0.29015 0.40584,-0.0787 0.60463,-0.0486 0.60463,0.0922 0,0.0969 -0.13252,0.42858 -0.26805,0.67072 -0.0456,0.0813 -0.16316,0.30775 -0.26136,0.50305 -0.0983,0.19528 -0.24126,0.46159 -0.3179,0.5918 -0.0765,0.13019 -0.15733,0.30918 -0.17934,0.39776 -0.0221,0.0886 -0.0928,0.18938 -0.15767,0.224 -0.0675,0.0362 -0.11766,0.12382 -0.11766,0.20535 0,0.14675 -0.0729,0.23421 -0.1397,0.16748 z m -24.53855,1.54982 c 0.43063,-0.12708 0.69732,-0.15985 1.47025,-0.18071 0.58293,-0.0157 0.76222,-0.0413 0.88769,-0.12624 0.0865,-0.0587 0.22664,-0.13702 0.31144,-0.17428 0.14658,-0.0644 0.52639,-0.55343 0.52639,-0.67778 0,-0.0324 0.0558,-0.16768 0.12368,-0.30103 0.0697,-0.1366 0.11155,-0.30621 0.0958,-0.38837 -0.0154,-0.0802 0.009,-0.38951 0.0536,-0.68725 0.11733,-0.78124 0.10746,-1.14151 -0.0364,-1.32417 -0.0652,-0.0827 -0.11836,-0.19688 -0.11836,-0.2536 0,-0.0569 -0.0373,-0.13392 -0.0824,-0.17153 -0.0454,-0.0378 -0.11767,-0.15404 -0.16079,-0.25876 -0.0432,-0.10472 -0.2853,-0.39677 -0.53815,-0.64903 -0.39581,-0.39488 -0.48817,-0.45863 -0.66424,-0.45863 -0.11245,0 -0.22091,0.0266 -0.24104,0.0591 -0.0202,0.0327 -0.16659,0.0593 -0.3255,0.0593 -0.1589,0 -0.30538,0.0266 -0.32548,0.0591 -0.0202,0.0327 -0.15326,0.0593 -0.2959,0.0593 -0.14263,0 -0.27579,0.0266 -0.29591,0.0592 -0.0201,0.0326 -0.0963,0.0593 -0.1692,0.0593 -0.0729,0 -0.15844,0.0258 -0.19002,0.0575 -0.0317,0.0317 -0.24175,0.12427 -0.4671,0.206 l -0.40979,0.14862 -0.31586,-0.14943 -0.31589,-0.14944 0.0124,-0.68305 c 0.0117,-0.6424 0.0228,-0.69931 0.185,-0.9552 0.0949,-0.14967 0.19528,-0.33193 0.2231,-0.40504 0.0597,-0.15648 0.53651,-0.38716 0.79636,-0.38514 0.26455,0.002 0.70192,0.0734 0.76936,0.12542 0.0326,0.0251 0.14681,0.0645 0.25392,0.0874 0.29704,0.0636 0.36746,-0.0326 0.36746,-0.5012 0,-0.31889 -0.0308,-0.45445 -0.15184,-0.67124 -0.20203,-0.36149 -0.4604,-0.63094 -0.60492,-0.63094 -0.0648,0 -0.19372,-0.0399 -0.28695,-0.0885 -0.28765,-0.15001 -0.58727,-0.10951 -1.13602,0.15365 -0.51783,0.24834 -1.20801,0.82499 -1.28764,1.07591 -0.0209,0.0657 -0.12394,0.20525 -0.22923,0.31053 -0.12817,0.12817 -0.2373,0.33559 -0.33017,0.62747 -0.0763,0.23979 -0.15957,0.46457 -0.185,0.49948 -0.0254,0.0351 -0.0459,0.40773 -0.0454,0.82851 6.3e-4,0.42079 6.3e-4,0.83167 0,0.91303 -0.002,0.32318 0.0566,0.42143 0.32138,0.53861 0.14391,0.0636 0.27766,0.14165 0.29717,0.17326 0.0196,0.0317 0.26699,0.0579 0.54987,0.0583 0.2829,7.4e-4 0.66081,0.0401 0.83984,0.0881 0.35154,0.0943 0.85235,0.066 1.00607,-0.0568 0.14743,-0.11786 0.6809,-0.20751 1.00581,-0.16905 0.24805,0.0295 0.32985,0.0692 0.43405,0.21098 0.0706,0.096 0.22086,0.21867 0.33383,0.27229 0.26188,0.12433 0.4729,0.48883 0.47421,0.819 6.2e-4,0.13644 -0.0256,0.2645 -0.0582,0.28462 -0.0326,0.0201 -0.0593,0.10956 -0.0593,0.19878 0,0.0894 -0.0297,0.19194 -0.0659,0.22826 -0.0732,0.0733 -0.19347,0.27336 -0.28397,0.47263 -0.10938,0.24087 -0.46766,0.37128 -1.36001,0.49502 -0.41672,0.0579 -0.45237,0.0533 -0.7469,-0.0958 -0.42472,-0.21488 -0.50733,-0.18592 -0.61166,0.21454 -0.0781,0.29977 -0.0762,0.36079 0.0216,0.68032 0.19394,0.63406 0.30508,0.68445 1.03483,0.46904 z m 32.24791,-0.43334 c 0.0358,-0.0667 0.18341,-0.13627 0.3844,-0.18127 0.33614,-0.0751 0.34812,-0.0848 1.68785,-1.35321 0.0788,-0.0747 0.22693,-0.18741 0.32891,-0.25044 0.21252,-0.13134 0.49616,-0.54662 0.66735,-0.97715 0.18923,-0.47582 0.24858,-0.9475 0.18618,-1.47951 -0.0306,-0.2604 -0.0682,-0.68384 -0.0835,-0.941 -0.0315,-0.52354 -0.20472,-0.90659 -0.62947,-1.39016 -0.12554,-0.14291 -0.22826,-0.28937 -0.22826,-0.32549 0,-0.0921 -0.36073,-0.36962 -0.63131,-0.48577 -0.12472,-0.0537 -0.27303,-0.12075 -0.32956,-0.14931 -0.0566,-0.0286 -0.31172,-0.0521 -0.56712,-0.0521 -0.25543,0 -0.48442,-0.02 -0.50891,-0.0445 -0.0245,-0.0245 -0.12879,-0.0495 -0.2318,-0.0557 -0.10299,-0.006 -0.37084,-0.043 -0.59522,-0.0817 -0.34807,-0.0603 -0.43059,-0.0573 -0.56221,0.02 -0.0848,0.05 -0.33486,0.10979 -0.55561,0.13321 -0.27217,0.0289 -0.52104,0.10388 -0.77328,0.23305 -0.20454,0.10476 -0.45893,0.20786 -0.56532,0.22915 -0.28284,0.0566 -0.53849,0.25826 -0.53849,0.42483 0,0.0772 -0.0266,0.1569 -0.0593,0.17703 -0.0327,0.0201 -0.0593,0.16658 -0.0593,0.32548 0,0.15891 0.0266,0.30539 0.0593,0.3255 0.0327,0.0201 0.0593,0.13561 0.0593,0.25663 0,0.16297 0.0424,0.2603 0.16274,0.37526 0.19599,0.18692 0.37609,0.42437 0.53197,0.70135 0.42603,0.75698 0.50588,0.88957 0.55371,0.91912 0.0295,0.0182 0.0537,0.0797 0.0537,0.13681 0,0.0573 0.0535,0.21401 0.11837,0.34875 0.0652,0.13473 0.11835,0.27326 0.11835,0.3078 0,0.0347 0.0244,0.10911 0.0545,0.16563 0.0299,0.0565 0.1094,0.22259 0.17668,0.36907 0.25624,0.55784 0.63405,1.21987 0.79015,1.38458 0.0894,0.0943 0.16245,0.23788 0.16245,0.31915 0,0.0979 0.0972,0.24489 0.28746,0.43522 0.30704,0.30707 0.44289,0.3525 0.53562,0.17925 z m -0.16089,-2.15547 c -0.0945,-0.13833 -0.20625,-0.35805 -0.24811,-0.48823 -0.14624,-0.45479 -0.72237,-1.68285 -0.89913,-1.91655 -0.0588,-0.0776 -0.10674,-0.1911 -0.10674,-0.25213 0,-0.0611 -0.0872,-0.23722 -0.19372,-0.39148 -0.10653,-0.15429 -0.22696,-0.35628 -0.26763,-0.44889 -0.0698,-0.15905 -0.0608,-0.18125 0.16416,-0.39949 0.13097,-0.12708 0.28604,-0.23106 0.34458,-0.23106 0.0586,0 0.13177,-0.0241 0.16268,-0.0538 0.21866,-0.20879 1.96423,-0.43549 2.27547,-0.29555 0.0489,0.022 0.22194,0.10287 0.38469,0.17978 l 0.2959,0.13985 0,0.53262 c 0,0.55606 -0.15555,1.68212 -0.28256,2.04624 -0.0407,0.1164 -0.18669,0.34646 -0.32464,0.51125 -0.13796,0.16478 -0.25086,0.34232 -0.25086,0.39455 0,0.11855 -0.47904,0.7462 -0.56975,0.74652 -0.0369,0 -0.10001,0.0403 -0.14041,0.089 -0.11069,0.13337 -0.15604,0.11188 -0.34387,-0.16276 z m -25.7536,0.5165 c 0.11389,-0.1372 0.0408,-1.0066 -0.10159,-1.20532 -0.0608,-0.085 -0.15673,-0.30475 -0.21316,-0.48837 -0.0566,-0.18363 -0.14211,-0.36665 -0.19037,-0.4067 -0.0484,-0.0402 -0.0878,-0.14126 -0.0878,-0.22483 0,-0.0836 -0.0923,-0.34 -0.20529,-0.56976 -0.40082,-0.81571 -0.63642,-1.45344 -0.53693,-1.45344 0.0132,0 0.16088,0.13316 0.32796,0.29591 0.1671,0.16272 0.35203,0.29588 0.41098,0.29588 0.0591,0 0.1403,0.0401 0.18084,0.0888 0.0407,0.0489 0.10046,0.0888 0.13321,0.0888 0.0609,0 0.4221,0.28741 0.70328,0.55935 0.0858,0.0829 0.19769,0.15081 0.24873,0.15081 0.0512,0 0.15955,0.0305 0.24112,0.0675 0.22529,0.10264 0.42335,-0.0516 0.46497,-0.36172 0.0472,-0.35111 0.12643,-0.4226 0.42006,-0.37849 0.13455,0.0202 0.26991,0.0599 0.30082,0.0884 0.031,0.0284 0.12923,0.0518 0.21842,0.0518 0.0893,0 0.1787,0.0266 0.19882,0.0593 0.0597,0.0965 0.359,0.0675 0.45798,-0.0445 0.0722,-0.0815 0.0932,-0.27307 0.0996,-0.89913 0.004,-0.43758 0.0182,-0.80597 0.031,-0.81865 0.0312,-0.0312 0.5064,0.44717 0.5064,0.50969 0,0.0272 0.1,0.14241 0.22192,0.25604 0.3678,0.34238 0.89884,0.96178 1.02276,1.19297 0.0643,0.11952 0.11646,0.29405 0.11646,0.38781 0,0.0939 0.0333,0.19687 0.074,0.22905 0.11076,0.0876 1.16993,0.18933 1.33155,0.1279 0.12704,-0.0484 0.13462,-0.0757 0.10011,-0.3636 -0.0205,-0.17126 -0.0814,-0.36904 -0.13529,-0.43954 -0.054,-0.0705 -0.25866,-0.3368 -0.45512,-0.59179 -0.32031,-0.41589 -0.50971,-0.67755 -0.63073,-0.87141 -0.10204,-0.1635 -0.3953,-0.85839 -0.4549,-1.07803 -0.0365,-0.13364 -0.13261,-0.34123 -0.2141,-0.4613 -0.0815,-0.12002 -0.14813,-0.27334 -0.14813,-0.34066 0,-0.12736 -0.19316,-0.39984 -0.51094,-0.72073 -0.18522,-0.18703 -0.61348,-0.97079 -0.61348,-1.12276 0,-0.13311 -0.44983,-0.45524 -0.63569,-0.45524 -0.1849,0 -0.31119,0.0931 -0.31119,0.22911 0,0.12728 -0.17848,0.30351 -0.30736,0.30351 -0.0613,0 -0.22364,0.10776 -0.3607,0.23948 l -0.24923,0.23951 -0.007,0.51504 c -0.01,0.67181 -0.12114,1.32799 -0.30376,1.78745 -0.0325,0.0813 -0.0781,0.28959 -0.10188,0.46271 -0.0774,0.56604 -0.39561,0.54114 -1.01096,-0.0791 -0.17178,-0.17318 -0.32115,-0.37677 -0.3319,-0.45248 -0.0122,-0.0856 -0.0905,-0.17127 -0.207,-0.22667 -0.10313,-0.0491 -0.2422,-0.15896 -0.30909,-0.24433 -0.0669,-0.0854 -0.21694,-0.20048 -0.33343,-0.25576 -0.1165,-0.0555 -0.2364,-0.16518 -0.26646,-0.24425 -0.0301,-0.079 -0.0832,-0.1437 -0.11811,-0.1437 -0.035,0 -0.12801,-0.0696 -0.20691,-0.15478 -0.11011,-0.1188 -0.17835,-0.14604 -0.29356,-0.11712 -0.25478,0.064 -0.51394,0.34075 -0.53347,0.56977 -0.0157,0.18459 -0.0342,0.20391 -0.18289,0.1925 -0.14429,-0.0111 -0.55723,0.17984 -0.55723,0.25759 0,0.17958 0.17331,0.62733 0.30555,0.78943 0.0923,0.11322 0.1679,0.25557 0.1679,0.31636 0,0.0609 0.0385,0.18122 0.085,0.26761 0.0469,0.0864 0.12446,0.35683 0.17266,0.60093 0.12775,0.64644 0.31955,1.30031 0.45372,1.54677 0.0646,0.11835 0.11716,0.2797 0.11716,0.35856 0,0.0788 0.0392,0.19509 0.0869,0.25827 0.0479,0.0632 0.0878,0.15648 0.0888,0.20732 9.8e-4,0.051 0.0554,0.20269 0.12024,0.33742 0.065,0.13474 0.11836,0.28444 0.11836,0.33266 0,0.12055 0.49984,0.61908 0.85347,0.85126 0.31703,0.20815 0.62232,0.24952 0.74552,0.10109 z m 8.37291,-2.39548 c 0.0202,-0.0326 0.14987,-0.0593 0.28833,-0.0593 0.34117,0 0.84524,-0.24873 0.9732,-0.48023 0.0549,-0.0992 0.23947,-0.36923 0.41033,-0.60018 0.17088,-0.23094 0.31072,-0.45552 0.31072,-0.49907 0,-0.0436 0.024,-0.12541 0.0533,-0.18192 0.062,-0.11978 0.19858,-0.48563 0.29419,-0.78755 0.037,-0.11624 0.067,-0.41585 0.067,-0.66576 0,-0.24995 0.012,-0.45447 0.0265,-0.45447 0.0647,0 0.32439,0.28834 0.47249,0.52457 0.24218,0.38619 0.6217,0.77428 0.85083,0.87001 0.1118,0.0468 0.3545,0.0849 0.53932,0.0849 0.18481,0 0.36574,0.0299 0.40207,0.0661 0.10388,0.10386 1.24564,0.04 1.47665,-0.0829 0.189,-0.10037 0.55227,-0.57309 0.55227,-0.71866 0,-0.0433 0.0417,-0.11299 0.0922,-0.15509 0.12237,-0.10153 0.2629,-0.44581 0.2629,-0.64405 0,-0.0875 0.0393,-0.21071 0.0869,-0.27387 0.0652,-0.086 0.0872,-0.2935 0.0879,-0.82504 9.9e-4,-0.73674 -0.0548,-1.06753 -0.33366,-1.98256 -0.14505,-0.47567 -0.17787,-0.52729 -0.60386,-0.94962 -0.50267,-0.49835 -1.13673,-0.88496 -1.45133,-0.88496 -0.10884,0 -0.22867,-0.0373 -0.26634,-0.0825 -0.0379,-0.0455 -0.15413,-0.0954 -0.25877,-0.11112 -0.10464,-0.0157 -0.40938,-0.0754 -0.67722,-0.13274 l -0.48697,-0.10422 -0.26734,0.21906 c -0.28,0.22942 -0.62292,0.67882 -0.62292,0.81636 0,0.0443 -0.0887,0.25249 -0.19703,0.46278 -0.17283,0.33532 -0.20622,0.47693 -0.27166,1.15168 -0.0927,0.95691 -0.10478,1.00618 -0.22117,0.90958 -0.0486,-0.0404 -0.13834,-0.17151 -0.19966,-0.29173 -0.0615,-0.12022 -0.15299,-0.2345 -0.2037,-0.25394 -0.0508,-0.0195 -0.11774,-0.10266 -0.14901,-0.18485 -0.0313,-0.0822 -0.0964,-0.14947 -0.14495,-0.14947 -0.0486,0 -0.11552,-0.0512 -0.14893,-0.11357 -0.0336,-0.0626 -0.14667,-0.13239 -0.25165,-0.15548 -0.10499,-0.0231 -0.2317,-0.0622 -0.28163,-0.0866 -0.12219,-0.0602 -0.63391,-0.18808 -0.88962,-0.2224 -0.11392,-0.0153 -0.24326,-0.0571 -0.28743,-0.0923 -0.10145,-0.0817 -0.7577,-0.0662 -0.95473,0.0224 -0.47723,0.21475 -0.56875,0.29125 -0.75013,0.62699 -0.10302,0.19065 -0.23185,0.42653 -0.28633,0.52418 -0.17656,0.31654 -0.26676,0.68722 -0.19833,0.8151 0.0342,0.0636 0.0447,0.21253 0.0234,0.33088 -0.0634,0.35348 -0.035,0.771 0.0853,1.25084 0.0369,0.14646 0.089,0.37282 0.11616,0.50301 0.0272,0.13021 0.10569,0.38921 0.17431,0.57555 0.0687,0.18634 0.12479,0.37576 0.12479,0.42091 0,0.0453 0.0798,0.18265 0.17754,0.30553 0.0976,0.12286 0.17756,0.25838 0.17756,0.30109 0,0.0428 0.0415,0.10085 0.092,0.12912 0.0507,0.0283 0.19044,0.19606 0.3109,0.37284 0.31907,0.46819 0.79793,0.89396 1.06348,0.94553 0.33507,0.0651 0.77114,0.0636 0.81214,-0.003 z m -0.41423,-1.32512 c -0.0976,-0.0825 -0.20258,-0.15109 -0.23314,-0.15226 -0.0845,-0.003 -0.80252,-0.77963 -0.80252,-0.86775 0,-0.0426 -0.0799,-0.16812 -0.17756,-0.27935 -0.0976,-0.1112 -0.17753,-0.25704 -0.17753,-0.32406 0,-0.067 -0.0266,-0.13833 -0.0593,-0.15843 -0.0718,-0.0444 -0.0799,-1.07503 -0.009,-1.11896 0.0277,-0.0171 0.067,-0.22505 0.0877,-0.46213 0.0395,-0.45464 0.27067,-1.17867 0.43427,-1.35945 0.13269,-0.1466 0.27388,-0.13457 0.48259,0.0412 0.0972,0.0817 0.2356,0.1415 0.30846,0.13318 0.13551,-0.0155 0.14639,8.1e-4 0.68204,1.02732 0.0783,0.15021 0.18288,0.30658 0.23219,0.34753 0.0494,0.0411 0.0897,0.12715 0.0897,0.1916 0,0.0645 0.0643,0.24096 0.14288,0.39222 0.0785,0.15127 0.20118,0.47475 0.27239,0.7189 0.0712,0.24409 0.15726,0.49628 0.1912,0.56037 0.0738,0.13942 0.0609,0.8965 -0.018,1.04366 -0.1226,0.22907 -0.40105,0.35737 -0.84084,0.38741 -0.39429,0.0269 -0.4423,0.0173 -0.60576,-0.12084 z m 5.20787,-1.98897 c -0.0652,-0.028 -0.20224,-0.0529 -0.30477,-0.0552 -0.26329,-0.006 -0.77617,-0.36978 -1.00953,-0.7163 -0.10715,-0.1591 -0.1948,-0.32519 -0.1948,-0.36906 0,-0.0439 -0.0392,-0.1315 -0.0869,-0.19467 -0.0479,-0.0633 -0.0878,-0.17566 -0.0888,-0.24994 -9.9e-4,-0.0742 -0.0374,-0.22074 -0.0802,-0.32551 -0.0871,-0.21138 -0.0395,-1.11208 0.066,-1.24272 0.032,-0.0398 0.0772,-0.16533 0.10072,-0.27928 0.0235,-0.11391 0.10321,-0.27371 0.17722,-0.35507 0.0739,-0.0813 0.20533,-0.26214 0.29183,-0.40172 0.18579,-0.29977 0.39926,-0.42324 0.53585,-0.30987 0.0499,0.0415 0.0905,0.10028 0.0905,0.13103 0,0.0308 0.12174,0.20535 0.27052,0.38799 0.14876,0.18262 0.31963,0.42717 0.37972,0.54343 0.0602,0.11626 0.21798,0.32351 0.35088,0.46059 0.13291,0.13707 0.24167,0.28402 0.24167,0.32655 0,0.0426 0.0615,0.17006 0.13636,0.28339 0.16094,0.24319 0.33798,0.80971 0.36954,1.18257 0.007,0.0813 0.0301,0.32271 0.0514,0.53635 0.0482,0.48259 -0.0147,0.55513 -0.55791,0.64324 -0.44809,0.0727 -0.57754,0.0734 -0.73903,0.004 z m 6.84196,-0.9179 c 0.0734,-0.14677 0.18171,-0.31069 0.24088,-0.36426 0.11943,-0.10806 0.13968,-0.32269 0.0469,-0.49617 -0.0491,-0.0915 -0.0319,-0.13873 0.0888,-0.24351 0.20511,-0.17833 0.18854,-0.28326 -0.0872,-0.55251 -0.13018,-0.12714 -0.23672,-0.26266 -0.23672,-0.30116 0,-0.1002 -0.14903,-0.3736 -0.24895,-0.4567 -0.0468,-0.0391 -0.14734,-0.28374 -0.22359,-0.54412 -0.0762,-0.26038 -0.25413,-0.71169 -0.39525,-1.0029 -0.14114,-0.29116 -0.25663,-0.57388 -0.25663,-0.62819 0,-0.0545 -0.0535,-0.16648 -0.11835,-0.24923 -0.0652,-0.0828 -0.11837,-0.23071 -0.11837,-0.32879 0,-0.1492 0.0284,-0.18452 0.1741,-0.21652 0.0958,-0.0211 0.28886,-0.12304 0.42906,-0.22662 0.14023,-0.10363 0.3986,-0.24179 0.57415,-0.30707 0.38663,-0.1437 0.72137,-0.50215 0.60261,-0.64524 -0.04,-0.048 -0.13025,-0.0954 -0.20114,-0.10544 -0.11769,-0.0167 -0.12718,-0.0474 -0.10953,-0.35236 0.0221,-0.38162 -0.0353,-0.45077 -0.27072,-0.32707 -0.47848,0.25118 -0.89264,0.44023 -1.04834,0.47854 -0.0963,0.0238 -0.29082,0.12111 -0.43203,0.2164 -0.14119,0.0952 -0.2833,0.17327 -0.31579,0.17327 -0.0325,0 -0.16932,0.0534 -0.30405,0.11834 -0.13475,0.0651 -0.28029,0.11839 -0.32343,0.11839 -0.0432,0 -0.12472,0.0248 -0.18122,0.0551 -0.0566,0.0303 -0.32914,0.16015 -0.6058,0.28873 -0.27668,0.12854 -0.67613,0.31429 -0.8877,0.41277 -0.21159,0.0985 -0.44108,0.19556 -0.51004,0.2158 -0.24838,0.0728 -0.34922,0.25737 -0.33365,0.61052 0.008,0.18016 0.0432,0.36206 0.078,0.40424 0.0352,0.0422 0.0704,0.19762 0.0788,0.34547 0.03,0.53213 0.4345,0.68334 0.80514,0.30099 0.11041,-0.11396 0.22587,-0.20717 0.25656,-0.20717 0.0307,0 0.2208,-0.14485 0.42246,-0.32188 0.42708,-0.37497 0.63286,-0.45117 0.80286,-0.29734 0.0639,0.0579 0.11598,0.12925 0.11598,0.15891 0,0.0297 0.0611,0.13875 0.13538,0.24237 0.21962,0.30555 0.37154,0.77811 0.55527,1.72707 0.0189,0.0977 0.0583,0.2074 0.0871,0.24388 0.029,0.0367 0.0939,0.20963 0.14417,0.3847 0.11747,0.40852 0.23626,0.66735 0.34939,0.76124 0.0496,0.0411 0.0899,0.0947 0.0899,0.11935 0,0.0836 0.41427,0.73318 0.57369,0.89961 0.23742,0.24783 0.39754,0.21872 0.55738,-0.10135 z m 4.49679,-0.64425 c 0.17715,-0.18403 0.1992,-0.59082 0.0442,-0.81423 -0.06,-0.0864 -0.10902,-0.18356 -0.10902,-0.21593 0,-0.0324 -0.096,-0.20141 -0.21333,-0.37557 -0.46436,-0.68922 -0.48328,-0.95587 -0.0826,-1.16356 0.14647,-0.0759 0.35951,-0.2268 0.47346,-0.33531 0.11391,-0.10854 0.43814,-0.30567 0.72051,-0.43812 0.28238,-0.13244 0.53028,-0.26809 0.55092,-0.30149 0.08,-0.12952 0.18491,-0.0484 0.32278,0.24999 0.0789,0.17088 0.15885,0.40183 0.17745,0.5132 0.0276,0.16545 0.0825,0.22819 0.29988,0.34293 0.22295,0.11773 0.28046,0.18561 0.35485,0.41892 0.082,0.25717 0.10497,0.27979 0.30097,0.29625 0.26629,0.0224 0.34385,-0.0668 0.38886,-0.44662 0.0297,-0.24957 0.007,-0.35187 -0.15193,-0.68455 -0.10266,-0.21513 -0.21243,-0.40704 -0.24393,-0.42653 -0.0316,-0.0195 -0.0574,-0.0838 -0.0574,-0.143 0,-0.0591 -0.0379,-0.13886 -0.0837,-0.17706 -0.0461,-0.0384 -0.14047,-0.18127 -0.20989,-0.31794 -0.0694,-0.13667 -0.19113,-0.35503 -0.27046,-0.48523 -0.0793,-0.13019 -0.14464,-0.30838 -0.14518,-0.39598 -6.2e-4,-0.0876 -0.0276,-0.17571 -0.0602,-0.19583 -0.0326,-0.0201 -0.0593,-0.0775 -0.0593,-0.12771 0,-0.0502 -0.0373,-0.17503 -0.0825,-0.27761 -0.0454,-0.10256 -0.15515,-0.42616 -0.24397,-0.7191 -0.18977,-0.6259 -0.25447,-0.78879 -0.56402,-1.42032 -0.12763,-0.26039 -0.23937,-0.52672 -0.24829,-0.59181 -0.0125,-0.0912 -0.0688,-0.12268 -0.2444,-0.13714 -0.30925,-0.0254 -0.53204,0.17115 -0.47713,0.42106 0.0299,0.13555 0.004,0.20543 -0.12372,0.33903 -0.23889,0.24934 -0.20915,0.32267 0.4697,1.15811 0.0818,0.10074 0.16692,0.3005 0.18901,0.44385 0.0221,0.14336 0.101,0.37668 0.1754,0.51847 0.0743,0.14179 0.12291,0.29012 0.10775,0.32962 -0.0557,0.14474 -0.55488,0.50877 -0.86168,0.62818 -0.17347,0.0676 -0.46321,0.19893 -0.64387,0.292 -0.18063,0.0932 -0.4225,0.18685 -0.5375,0.20846 -0.18097,0.0341 -0.22235,0.019 -0.30774,-0.1114 -0.0545,-0.0828 -0.0987,-0.19239 -0.0987,-0.24354 0,-0.0513 -0.0364,-0.1519 -0.0804,-0.22399 -0.0443,-0.0721 -0.11267,-0.3308 -0.15206,-0.57492 -0.0777,-0.48211 -0.10005,-0.60289 -0.18522,-1.00607 -0.031,-0.14647 -0.073,-0.37285 -0.0933,-0.50303 -0.0204,-0.13021 -0.0708,-0.27667 -0.112,-0.32549 -0.0412,-0.049 -0.0843,-0.14036 -0.0958,-0.2034 -0.0133,-0.0728 -0.0945,-0.13365 -0.22197,-0.1667 -0.26385,-0.0684 -0.37153,0.0383 -0.4508,0.44552 -0.054,0.27689 -0.0774,0.31125 -0.22499,0.32826 -0.26453,0.0306 -0.37498,0.51886 -0.18976,0.83908 0.0472,0.0813 0.10166,0.18792 0.12128,0.23675 0.0196,0.0489 0.0727,0.16865 0.11789,0.26631 0.0452,0.0977 0.11162,0.29736 0.14764,0.44384 0.0639,0.25963 0.12964,0.42799 0.36025,0.9212 0.14536,0.31085 0.14524,0.3118 -0.0734,0.53734 l -0.1859,0.19179 0.10188,0.21466 c 0.0958,0.20182 0.11666,0.21361 0.34806,0.19693 0.19006,-0.0137 0.25042,0.004 0.26483,0.079 0.0103,0.0534 -0.01,0.11422 -0.0439,0.13544 -0.0969,0.06 -0.0737,0.42208 0.0327,0.51031 0.0524,0.0435 0.15136,0.10695 0.22014,0.14124 0.0688,0.0345 0.16581,0.14078 0.21561,0.23663 0.20047,0.38571 0.46068,0.7126 0.58143,0.73037 0.14025,0.0207 0.39391,0.32755 0.57157,0.69152 0.21544,0.44137 0.33196,0.49095 0.57073,0.24285 z m 4.82848,-1.52556 c 0.0752,-0.0707 0.13697,-0.15002 0.13697,-0.17612 0,-0.0262 0.14558,-0.2002 0.32348,-0.38682 0.51608,-0.54144 0.51962,-0.57623 0.11396,-1.12398 -0.18852,-0.25456 -0.41991,-0.62263 -0.51418,-0.81791 -0.0943,-0.19532 -0.20521,-0.39503 -0.24658,-0.44388 -0.0415,-0.049 -0.0934,-0.20838 -0.11564,-0.35457 -0.0223,-0.1462 -0.0891,-0.37257 -0.14836,-0.50301 -0.15241,-0.33507 -0.30102,-0.80669 -0.30068,-0.95423 0,-0.0689 -0.0531,-0.19287 -0.11806,-0.27564 -0.0652,-0.0828 -0.11838,-0.1746 -0.11838,-0.20404 0,-0.10693 -0.34835,-0.38685 -0.43844,-0.3523 -0.0498,0.0191 -0.12986,0.12908 -0.17804,0.24442 -0.0483,0.11535 -0.12535,0.20973 -0.17143,0.20973 -0.0462,0 -0.15152,0.0533 -0.23429,0.11835 -0.0827,0.0651 -0.19424,0.11835 -0.24772,0.11835 -0.0852,0 -0.26876,0.31526 -0.26876,0.46146 0,0.028 0.13983,0.20867 0.3107,0.40135 0.17089,0.19271 0.40025,0.53681 0.50968,0.76464 0.26207,0.54554 0.2908,0.61885 0.32473,0.82853 0.0514,0.31663 0.1382,0.60025 0.27433,0.8949 0.19852,0.4298 0.20783,0.44907 0.3244,0.67339 0.19296,0.37129 0.20913,0.41131 0.20913,0.51863 0,0.10499 0.30781,0.48744 0.39232,0.48744 0.0241,0 0.10553,-0.0581 0.18086,-0.12869 z m 3.36232,-0.0524 c 0.26586,-0.0118 1.25874,-0.1907 1.4795,-0.26652 0.54814,-0.18826 0.72447,-0.2612 0.98458,-0.40724 0.2844,-0.15964 0.87961,-0.70615 0.87961,-0.80757 0,-0.0318 -0.0392,-0.1512 -0.0867,-0.26536 -0.0774,-0.1854 -0.0763,-0.22923 0.0103,-0.41106 0.0914,-0.19158 0.0906,-0.21055 -0.0112,-0.32317 -0.16905,-0.1868 -0.34734,-0.1465 -0.64899,0.14665 -0.1507,0.14647 -0.32879,0.2663 -0.39575,0.2663 -0.067,0 -0.19336,0.0511 -0.28085,0.1133 -0.0875,0.0625 -0.2647,0.13163 -0.3938,0.15408 -0.1291,0.0225 -0.34125,0.0752 -0.47144,0.11756 -0.1302,0.0424 -0.51896,0.11862 -0.8639,0.16981 -0.34491,0.0513 -0.66677,0.10822 -0.71519,0.12681 -0.18644,0.0715 -0.39501,-0.25981 -0.62042,-0.9856 -0.0197,-0.0635 0.0468,-0.15557 0.19164,-0.26631 0.12195,-0.0932 0.33465,-0.27591 0.47262,-0.40612 0.51357,-0.48456 1.01063,-0.79894 1.26315,-0.79894 0.24249,0 0.30169,-0.1028 0.30169,-0.52408 0,-0.31634 0.0254,-0.41539 0.14794,-0.57601 0.18776,-0.24618 0.187,-0.36418 -0.003,-0.45069 -0.11528,-0.0527 -0.19729,-0.0521 -0.34747,0.002 -0.10812,0.0393 -0.24031,0.0545 -0.29374,0.034 -0.0536,-0.0205 -0.13508,-0.006 -0.18142,0.0328 -0.0465,0.0386 -0.29159,0.1205 -0.54503,0.18231 -0.28228,0.069 -0.49577,0.15673 -0.55117,0.22688 -0.0498,0.0631 -0.20101,0.13229 -0.33622,0.15403 -0.15738,0.0254 -0.33541,0.11621 -0.49488,0.25273 -0.26422,0.22614 -0.42253,0.21896 -0.46075,-0.0209 -0.0176,-0.11065 -0.0945,-0.31086 -0.1962,-0.51069 -0.0289,-0.0566 -0.0524,-0.18231 -0.0524,-0.27954 0,-0.0972 -0.0583,-0.29646 -0.12924,-0.44276 -0.12569,-0.25873 -0.12625,-0.26929 -0.0205,-0.38624 0.0598,-0.0661 0.13388,-0.12027 0.16449,-0.12027 0.0308,0 0.12858,-0.0521 0.21773,-0.11538 0.0979,-0.0697 0.21246,-0.10221 0.28952,-0.082 0.0859,0.0225 0.13974,9.9e-4 0.16507,-0.0649 0.0438,-0.11401 0.43967,-0.32968 0.6052,-0.32968 0.0626,0 0.14664,-0.0402 0.18717,-0.0888 0.0407,-0.049 0.14364,-0.0891 0.22916,-0.0894 0.19518,-7.5e-4 0.63841,-0.21845 0.84527,-0.41529 0.10933,-0.10408 0.17016,-0.23908 0.19997,-0.44387 0.0243,-0.16627 0.11673,-0.40502 0.21275,-0.54879 0.2681,-0.40159 0.20484,-0.69328 -0.17543,-0.80936 -0.0969,-0.0297 -0.17649,-0.008 -0.2663,0.0711 -0.0705,0.0624 -0.32785,0.18936 -0.57198,0.28244 -0.24692,0.0941 -0.51345,0.24333 -0.60077,0.33625 -0.0863,0.0918 -0.19621,0.167 -0.24425,0.167 -0.0482,0 -0.11778,0.0368 -0.15492,0.0814 -0.0374,0.0448 -0.17012,0.0978 -0.29548,0.11783 -0.12533,0.0201 -0.26126,0.0765 -0.30201,0.12572 -0.0409,0.0493 -0.12349,0.0894 -0.18382,0.0894 -0.0603,0 -0.19686,0.0533 -0.30344,0.11815 -0.10655,0.065 -0.26035,0.11908 -0.3417,0.12024 -0.0813,9.8e-4 -0.19755,0.0398 -0.25816,0.0856 -0.0607,0.046 -0.25708,0.10181 -0.43664,0.12425 -0.277,0.0348 -0.36122,0.0765 -0.55561,0.27689 -0.24624,0.2537 -0.2748,0.37368 -0.14866,0.62422 0.0443,0.0879 0.097,0.28673 0.11736,0.44185 0.0323,0.24614 0.39177,1.01667 0.60022,1.28624 0.0679,0.0878 0.11232,0.22494 0.29722,0.91729 0.0523,0.19531 0.11745,0.43498 0.14506,0.53263 0.0276,0.0976 0.0831,0.4039 0.1233,0.68056 0.0656,0.44991 0.25528,0.93471 0.47661,1.21659 0.10384,0.13232 0.22018,0.73375 0.18814,0.97277 -0.0298,0.22209 -0.0151,0.26343 0.13794,0.38861 0.12172,0.0996 0.24843,0.14098 0.43764,0.14313 0.14648,0.002 0.30229,0.0259 0.34624,0.0538 0.0675,0.0428 0.32138,0.0435 1.22205,0.003 z m -5.05995,-7.54216 c 0.0406,-0.049 0.1059,-0.0888 0.1453,-0.0888 0.0814,0 0.38459,-0.36946 0.48566,-0.59181 0.22533,-0.49563 0.23995,-0.82257 0.057,-1.27244 -0.1749,-0.42987 -0.38026,-0.58416 -0.76952,-0.57806 -0.50509,0.008 -0.82795,0.0802 -0.98361,0.22045 -0.0813,0.0733 -0.19142,0.14836 -0.24451,0.16692 -0.15021,0.0526 -0.25861,0.91593 -0.17339,1.3813 0.0566,0.30873 0.38769,0.73283 0.57227,0.73283 0.074,0 0.15101,0.0267 0.17112,0.0592 0.0596,0.0962 0.65513,0.0724 0.73975,-0.0297 z"
       id="path2998"
       inkscape:connector-curvature="0"
       sodipodi:nodetypes="ssssssssssssssssssscssssssssssssscsssssssssssssssssscsssssssssscsssssssssssssssssssssssssscssssssssssssssssssssscsssssssssssssssssssssscsssssssssssssssssscsssssscssssssscsssssssssssssssssssssssssssssssssscsssscssssssscsscssssscssssssssssssssccssssssssssssssssssssscccsssssssssssssssscsscssssscssssssssccsssssssssssssssssssssssssscssssssssscsssssssssscsssscsccssssssssssssssssssssssssssssssssssssssssscssssssssssssssssssssssssssscssssssssssssssssssssscsscssssssssssssssssssssssssssssccsssssssssssssssssssscssssssssssssssssssssccssssssssssssssssssssssssssssssssssssssssssssssssssscsssssssssssscssssssssssssssssssssssssssssssssscsssssssssssssssssscsssssssssssssssscssssssssssssssssssssccsssssssssssscssssssssssssssssscssssssssssssssccsssssssssss" />
  </g>
  <g
     inkscape:groupmode="layer"
     id="layer6"
     inkscape:label="silkscreen"
     style="display:inline"
     transform="translate(-515.01257,-462.97494)" />
  <g
     inkscape:groupmode="layer"
     id="layer3"
     inkscape:label="pads"
     style="display:inline"
     transform="translate(-515.01257,-462.97494)" />
  <g
     inkscape:groupmode="layer"
     id="layer4"
     inkscape:label="packages"
     style="display:inline"
     transform="translate(-515.01257,-462.97494)" />
  <g
     inkscape:groupmode="layer"
     id="layer5"
     inkscape:label="connectors"
     style="display:inline"
     transform="translate(-515.01257,-462.97494)">
    <g
       transform="translate(-19.6037,50.3748)"
       id="g9089-0-1-7-1">
      <g
         id="g9085-0-53-7-37" />
      <g
         id="g8994-3-3-8-0">
        <g
           id="g9338-4-4" />
      </g>
      <g
         id="g8994-6-7-81-1-4"
         transform="translate(119.9875,-0.39934807)" />
      <g
         id="g8994-8-6-2-4-37"
         transform="translate(239.84396,-0.32821523)" />
    </g>
    <g
       id="g9445-2-8-6"
       transform="matrix(-0.99956273,0,0,-0.99956273,3816.0003,8054.4714)" />
  </g>
</svg>
