<?xml version="1.0" encoding="UTF-8" standalone="no"?>
<!-- Created with Inkscape (http://www.inkscape.org/) -->

<svg
   xmlns:dc="http://purl.org/dc/elements/1.1/"
   xmlns:cc="http://creativecommons.org/ns#"
   xmlns:rdf="http://www.w3.org/1999/02/22-rdf-syntax-ns#"
   xmlns:svg="http://www.w3.org/2000/svg"
   xmlns="http://www.w3.org/2000/svg"
   xmlns:sodipodi="http://sodipodi.sourceforge.net/DTD/sodipodi-0.dtd"
   xmlns:inkscape="http://www.inkscape.org/namespaces/inkscape"
   width="303.46457"
   height="377.90298"
   id="svg4331"
   version="1.1"
   inkscape:version="0.48.4 r9939"
   sodipodi:docname="fan.svg"
   inkscape:export-filename="fan.png"
   inkscape:export-xdpi="599.91589"
   inkscape:export-ydpi="599.91589">
  <defs
     id="defs4333" />
  <sodipodi:namedview
     id="base"
     pagecolor="#ffffff"
     bordercolor="#666666"
     borderopacity="1.0"
     inkscape:pageopacity="0.0"
     inkscape:pageshadow="2"
     inkscape:zoom="0.7"
     inkscape:cx="16.817957"
     inkscape:cy="307.92705"
     inkscape:document-units="mm"
     inkscape:current-layer="layer3"
     showgrid="false"
     showguides="false"
     inkscape:guide-bbox="true"
     inkscape:object-nodes="true"
     inkscape:snap-center="true"
     inkscape:snap-object-midpoints="true"
     inkscape:snap-global="false"
     inkscape:snap-bbox="true"
     inkscape:bbox-paths="true"
     inkscape:window-width="1680"
     inkscape:window-height="1028"
     inkscape:window-x="1272"
     inkscape:window-y="-8"
     inkscape:window-maximized="1"
     inkscape:object-paths="true"
     fit-margin-top="10"
     fit-margin-left="10"
     fit-margin-right="10"
     fit-margin-bottom="10">
    <sodipodi:guide
       orientation="0,1"
       position="324.42414,315.25516"
       id="guide4994" />
    <sodipodi:guide
       orientation="1,0"
       position="313.82495,315.96555"
       id="guide4996" />
    <sodipodi:guide
       orientation="1,0"
       position="605.5741,466.9343"
       id="guide5016" />
    <sodipodi:guide
       orientation="0,1"
       position="47.514139,581.85581"
       id="guide5055" />
    <sodipodi:guide
       orientation="1,0"
       position="47.514139,581.85581"
       id="guide5057" />
    <sodipodi:guide
       orientation="1,0"
       position="578.10535,581.85581"
       id="guide5077" />
    <sodipodi:guide
       orientation="1,0"
       position="-160.32475,581.85581"
       id="guide5121" />
    <sodipodi:guide
       orientation="0,1"
       position="155.77807,612.8093"
       id="guide5392" />
    <sodipodi:guide
       orientation="1,0"
       position="19.059319,478.46555"
       id="guide5394" />
    <sodipodi:guide
       orientation="0,1"
       position="53.099499,9.9999784"
       id="guide5414" />
    <sodipodi:guide
       orientation="0,1"
       position="155.7641,17.010168"
       id="guide5434" />
  </sodipodi:namedview>
  <metadata
     id="metadata4336">
    <rdf:RDF>
      <cc:Work
         rdf:about="">
        <dc:format>image/svg+xml</dc:format>
        <dc:type
           rdf:resource="http://purl.org/dc/dcmitype/StillImage" />
        <dc:title></dc:title>
      </cc:Work>
    </rdf:RDF>
  </metadata>
  <g
     inkscape:groupmode="layer"
     id="layer3"
     inkscape:label="fan"
     transform="translate(-75.471931,-429.00009)">
    <g
       id="g4009"
       transform="translate(-120.71429,428.20358)">
      <path
         inkscape:connector-curvature="0"
         id="path3859-4"
         d="m 259.40105,28.32337 0.008,-15.75521"
         style="fill:none;stroke:#b08200;stroke-width:3.54330707;stroke-linecap:butt;stroke-linejoin:miter;stroke-miterlimit:4;stroke-opacity:1;stroke-dasharray:none"
         sodipodi:nodetypes="cc" />
      <path
         sodipodi:nodetypes="cc"
         inkscape:connector-curvature="0"
         id="path3792"
         d="m 259.38058,92.31874 0,-67.39058"
         style="fill:none;stroke:#bd0000;stroke-width:7.08661413;stroke-linecap:butt;stroke-linejoin:miter;stroke-miterlimit:4;stroke-opacity:1;stroke-dasharray:none" />
      <path
         inkscape:connector-curvature="0"
         id="path3859-4-2"
         d="m 247.73311,28.32337 0.008,-15.75521"
         style="fill:none;stroke:#b08200;stroke-width:3.54330707;stroke-linecap:butt;stroke-linejoin:miter;stroke-miterlimit:4;stroke-opacity:1;stroke-dasharray:none"
         sodipodi:nodetypes="cc" />
      <path
         sodipodi:nodetypes="cc"
         inkscape:connector-curvature="0"
         id="path3792-3-9"
         d="m 247.38058,92.31874 0,-67.39058"
         style="fill:none;stroke:#191919;stroke-width:7.08661413;stroke-linecap:butt;stroke-linejoin:miter;stroke-miterlimit:4;stroke-opacity:1;stroke-dasharray:none" />
    </g>
    <g
       id="g5861"
       transform="matrix(0.46649324,0,0,0.46649324,45.599853,425.15317)">
      <g
         id="g5655">
        <path
           style="fill:#191919;fill-opacity:1;stroke:#242424;stroke-width:0.83470762;stroke-linecap:square;stroke-linejoin:round;stroke-miterlimit:4;stroke-opacity:1;stroke-dasharray:none;stroke-dashoffset:63"
           d="m 523.90625,217.40625 -45.375,223.03125 C 460.78517,409.56091 427.48343,388.78125 389.3125,388.78125 l -204.625,-41.625 c -18.75598,-8.19425 -29.96659,-28.61385 -25.78125,-49.5 l -8.53125,42.53125 -31.125,-6.34375 -4.1875,23.1875 223.03125,45.375 c -30.87659,17.75534 -51.65625,51.07907 -51.65625,89.25 L 243.84375,700.875 c -9.18249,16.34796 -28.12377,25.69526 -47.5,21.8125 l 41.375,8.3125 -6.25,30.71875 23.21875,4.15625 45.375,-223 c 17.75534,30.87659 51.07907,51.65625 89.25,51.65625 l 204.5625,41.625 c 18.77164,8.18674 29.99977,28.57294 25.8125,49.46875 l 8.53125,-42.5 31.125,6.34375 L 663.53125,626.25 440.5,580.875 c 30.87458,-17.75332 51.65625,-51.04782 51.65625,-89.21875 l 42.1875,-207.3125 c 8.81281,-17.34617 28.36631,-27.447 48.375,-23.4375 l -41.875,-8.40625 6.28125,-30.90625 -23.21875,-4.1875 z"
           id="path5498"
           inkscape:connector-curvature="0" />
        <g
           id="g5490">
          <path
             id="rect4456"
             d="m 124.65625,185.21875 c -21.58181,0 -38.9375,17.38694 -38.9375,38.96875 l 0,533.5 c 0,21.58181 17.35569,38.96875 38.9375,38.96875 l 529.25,0 c 21.58181,0 38.96875,-17.38694 38.96875,-38.96875 l 0,-533.5 c 0,-21.58181 -17.38694,-38.96875 -38.96875,-38.96875 l -529.25,0 z M 389.3125,209.1875 c 155.99453,0 282.4375,126.47422 282.4375,282.46875 0,155.99453 -126.44297,282.4375 -282.4375,282.4375 -155.99453,0 -282.46875,-126.44297 -282.46875,-282.4375 0,-155.99453 126.47422,-282.46875 282.46875,-282.46875 z M 123,212.9375 c 6.6947,0 12.09375,5.4303 12.09375,12.125 0,6.6947 -5.39905,12.09375 -12.09375,12.09375 -6.6947,0 -12.125,-5.39905 -12.125,-12.09375 0,-6.6947 5.4303,-12.125 12.125,-12.125 z m 530.5625,0 c 6.6947,0 12.125,5.4303 12.125,12.125 0,6.6947 -5.4303,12.09375 -12.125,12.09375 -6.6947,0 -12.09375,-5.39905 -12.09375,-12.09375 0,-6.6947 5.39905,-12.125 12.09375,-12.125 z M 123,748.21875 c 6.6947,0 12.09375,5.4303 12.09375,12.125 0,6.6947 -5.39905,12.125 -12.09375,12.125 -6.6947,0 -12.125,-5.4303 -12.125,-12.125 0,-6.6947 5.4303,-12.125 12.125,-12.125 z m 530.5625,0 c 6.6947,0 12.125,5.4303 12.125,12.125 0,6.6947 -5.4303,12.125 -12.125,12.125 -6.6947,0 -12.09375,-5.4303 -12.09375,-12.125 0,-6.6947 5.39905,-12.125 12.09375,-12.125 z"
             style="fill:#1e1e1e;fill-opacity:1;stroke:#5b5b5b;stroke-width:0.49363768;stroke-linecap:square;stroke-linejoin:round;stroke-miterlimit:4;stroke-opacity:1;stroke-dasharray:none;stroke-dashoffset:63"
             inkscape:connector-curvature="0" />
          <path
             id="path5123"
             d="m 243.9375,199.90625 c -63.3818,31.71907 -114.9534,83.50667 -146.375,147.0625 l 0,287.9375 c 31.90086,64.52523 84.56909,116.92143 149.28125,148.5 l 284.90625,0 c 64.71216,-31.57857 117.38039,-83.97477 149.28125,-148.5 l 0,-287.9375 c -31.4216,-63.55583 -82.9932,-115.34343 -146.375,-147.0625 l -290.71875,0 z m 145.34375,9.28125 c 156.00024,0 282.46875,126.46851 282.46875,282.46875 0,156.00024 -126.46851,282.46875 -282.46875,282.46875 -156.00024,0 -282.4375,-126.46851 -282.4375,-282.46875 0,-156.00024 126.43726,-282.46875 282.4375,-282.46875 z"
             style="fill:#121212;fill-opacity:1;stroke:#242424;stroke-opacity:1"
             inkscape:connector-curvature="0" />
          <path
             id="rect4456-9"
             d="m 146.09375,194.09375 c -4.03636,1.01549 -7.03125,4.96033 -7.03125,9.65625 0,2.0217 0.54199,4.90224 1.5,6.46875 l -0.0312,0 c 3.38583,4.00781 5.4375,9.18788 5.4375,14.84375 0,12.69204 -10.27671,22.96875 -22.96875,22.96875 -5.83053,0 -11.16265,-2.17465 -15.21875,-5.75 -1.30154,-0.72387 -2.77195,-1.15625 -4.375,-1.15625 -4.311202,0 -7.927369,2.9795 -8.875,7 l 0,80.3125 C 126.12025,271.51478 173.72092,224.71127 231.25,194.09375 l -85.15625,0 z"
             style="fill:#191919;fill-opacity:1;stroke:#242424;stroke-opacity:1"
             inkscape:connector-curvature="0" />
          <path
             id="rect4456-9-8"
             d="m 629.23676,194.34057 c 4.03636,1.01549 7.03125,4.96033 7.03125,9.65625 0,2.0217 -0.54199,4.90224 -1.5,6.46875 l 0.0312,0 c -3.38583,4.00781 -5.4375,9.18788 -5.4375,14.84375 0,12.69204 10.27671,22.96875 22.96875,22.96875 5.83053,0 11.16265,-2.17465 15.21875,-5.75 1.30154,-0.72387 2.77195,-1.15625 4.375,-1.15625 4.3112,0 7.92737,2.9795 8.875,7 l 0,80.3125 C 649.21026,271.7616 601.60959,224.95809 544.08051,194.34057 l 85.15625,0 z"
             style="fill:#191919;fill-opacity:1;stroke:#242424;stroke-opacity:1"
             inkscape:connector-curvature="0" />
          <path
             id="rect4456-9-6"
             d="m 146.07977,789.89288 c -4.03636,-1.01549 -7.03125,-4.96033 -7.03125,-9.65625 0,-2.0217 0.54199,-4.90224 1.5,-6.46875 l -0.0312,0 c 3.38583,-4.00781 5.4375,-9.18788 5.4375,-14.84375 0,-12.69204 -10.27671,-22.96875 -22.96875,-22.96875 -5.83053,0 -11.16265,2.17465 -15.21875,5.75 -1.30154,0.72387 -2.77195,1.15625 -4.375,1.15625 -4.3112,0 -7.927369,-2.9795 -8.875,-7 l 0,-80.3125 c 31.58895,56.92272 79.18962,103.72623 136.71871,134.34375 l -85.15626,0 z"
             style="fill:#191919;fill-opacity:1;stroke:#242424;stroke-opacity:1"
             inkscape:connector-curvature="0" />
          <path
             id="rect4456-9-6-1"
             d="m 629.23676,789.64606 c 4.03636,-1.01549 7.03125,-4.96033 7.03125,-9.65625 0,-2.0217 -0.54199,-4.90224 -1.5,-6.46875 l 0.0312,0 c -3.38583,-4.00781 -5.4375,-9.18788 -5.4375,-14.84375 0,-12.69204 10.27671,-22.96875 22.96875,-22.96875 5.83053,0 11.16265,2.17465 15.21875,5.75 1.30154,0.72387 2.77195,1.15625 4.375,1.15625 4.3112,0 7.92737,-2.9795 8.875,-7 l 0,-80.3125 C 649.21026,712.22503 601.60959,759.02854 544.0805,789.64606 l 85.15626,0 z"
             style="fill:#191919;fill-opacity:1;stroke:#242424;stroke-opacity:1"
             inkscape:connector-curvature="0" />
        </g>
      </g>
      <g
         id="g5811">
        <g
           id="g5795">
          <path
             sodipodi:nodetypes="cssssssssssssssssssssssccsssssssssssssssssssssssssssssscssssssssssssssssssssssssssssssscc"
             inkscape:connector-curvature="0"
             id="path5667"
             d="m 454.455,461.26433 c 0,0 33.13887,-2.16253 33.68463,-2.22395 0.54576,-0.0614 1.35555,-0.16458 2.41165,-0.33158 1.05611,-0.16699 2.35854,-0.39782 3.88957,-0.71455 1.53104,-0.31673 3.29069,-0.71938 5.26125,-1.23001 1.97056,-0.51063 4.15203,-1.12925 6.52669,-1.87794 2.37466,-0.74868 4.94253,-1.62744 7.68588,-2.65835 2.74336,-1.0309 5.66221,-2.21396 8.73885,-3.57124 3.07663,-1.35729 6.31106,-2.8888 9.68556,-4.61662 1.68725,-0.86391 3.40952,-1.7769 5.1646,-2.74173 1.75508,-0.96482 3.54296,-1.98149 5.36144,-3.05275 1.81848,-1.07126 3.66755,-2.19711 5.545,-3.38033 1.87745,-1.18321 3.78328,-2.42379 5.71528,-3.72447 1.932,-1.30069 3.89016,-2.6615 5.87228,-4.08518 1.98212,-1.42369 3.98819,-2.91025 6.016,-4.46245 2.02781,-1.55219 4.07736,-3.17003 6.14644,-4.85626 2.06907,-1.68623 4.15768,-3.44086 6.26359,-5.26665 2.10592,-1.82579 4.22915,-3.72273 6.36748,-5.69359 2.13833,-1.97087 4.29176,-4.01564 6.45808,-6.1371 2.16631,-2.12146 4.34552,-4.31959 6.53539,-6.59716 2.18988,-2.27757 4.39043,-4.63458 6.59944,-7.07378 2.20901,-2.43921 4.42648,-4.96061 6.6502,-7.56697 2.22371,-2.60636 4.45368,-5.29768 6.68767,-8.07671 2.234,-2.77903 4.47203,-5.64579 6.71188,-8.60301 6.9688,-8.37602 7.68846,-5.90174 10.64085,-2.12465 1.26178,2.34741 2.47951,4.701 3.65376,7.05832 1.17424,2.35731 2.305,4.71835 3.39285,7.08066 1.08784,2.3623 2.13276,4.72587 3.13532,7.08825 1.00257,2.36238 1.96278,4.72356 2.8812,7.0811 0.91842,2.35753 1.79505,4.71141 2.63045,7.05918 0.83541,2.34778 1.62959,4.68944 2.38311,7.02253 0.75352,2.3331 1.46638,4.65763 2.13914,6.97113 0.67277,2.3135 1.30544,4.61598 1.89858,6.90497 0.59314,2.28899 1.14675,4.5645 1.66139,6.82406 0.51465,2.25957 0.99033,4.50319 1.42761,6.72841 0.43728,2.22522 0.83616,4.43204 1.1972,6.618 0.36105,2.18597 0.68426,4.35107 0.9702,6.49285 0.28594,2.14179 0.53461,4.26026 0.74658,6.35295 0.21196,2.09269 0.38722,4.15961 0.52634,6.19829 0.13913,2.03869 0.24211,4.04914 0.30951,6.0289 0.0674,1.97975 0.0992,3.92882 0.0961,5.84474 -0.003,1.91591 -0.0414,3.79868 -0.11399,5.64583 -0.0726,1.84716 -0.17971,3.65871 -0.32067,5.43219 -0.14096,1.77348 -0.31579,3.5089 -0.52394,5.20379 -0.20815,1.69489 -0.44962,3.34926 -0.72383,4.96064 -0.27422,1.61138 -0.58119,3.17978 -0.92033,4.70274 -0.33915,1.52295 -0.71049,3.00047 -1.11344,4.43009 -0.40296,1.42961 -0.83753,2.81133 -1.30316,4.14269 -0.46563,1.33136 -0.96231,2.61236 -1.48948,3.84054 -0.52717,1.22819 -1.08483,2.40356 -1.67242,3.52365 -0.58759,1.12009 -1.2051,2.18491 -1.85197,3.192 -0.64687,1.00709 -1.3231,1.95644 -2.02812,2.8456 -0.70502,0.88917 -1.43884,1.71814 -2.20089,2.48446 -0.76205,0.76632 -1.55233,1.47 -2.37027,2.10856 -0.81794,0.63857 -1.66355,1.21203 -2.53625,1.71792 -0.87271,0.5059 -1.77251,0.94422 -2.69885,1.31253 0,0 -0.0703,0.0377 -0.20948,0.11029 -0.13918,0.0726 -0.34723,0.18005 -0.62272,0.31955 -0.27549,0.1395 -0.61841,0.31104 -1.02734,0.51178 -0.40892,0.20075 -0.88385,0.4307 -1.42335,0.68702 -0.53949,0.25632 -1.14356,0.53902 -1.81075,0.84524 -0.6672,0.30623 -1.39753,0.636 -2.18955,0.98647 -0.79203,0.35046 -1.64576,0.72163 -2.55975,1.11067 -0.91398,0.38903 -1.88824,0.79593 -2.92132,1.21787 -1.03308,0.42193 -2.12499,0.8589 -3.27429,1.30806 -1.1493,0.44916 -2.356,0.91053 -3.61866,1.38125 -1.26265,0.47072 -2.58127,0.95081 -3.95441,1.43743 -1.37314,0.48661 -2.8008,0.97976 -4.28156,1.47659 -1.48075,0.49684 -3.0146,0.99737 -4.6001,1.49876 -1.5855,0.50139 -3.22265,1.00364 -4.91003,1.50391 -1.68737,0.50027 -3.42497,0.99857 -5.21135,1.49205 -1.78638,0.49349 -3.62154,0.98216 -5.50406,1.4632 -1.88252,0.48103 -3.81239,0.95441 -5.78817,1.41732 -1.97578,0.4629 -3.99748,0.91533 -6.06367,1.35444 -2.06618,0.43911 -4.17684,0.8649 -6.33055,1.27455 -2.15371,0.40965 -4.35047,0.80314 -6.58884,1.17766 -2.23837,0.37451 -4.51835,0.73004 -6.83851,1.06375 -2.32015,0.33371 -4.68049,0.64561 -7.07957,0.93285 -2.39907,0.28724 -4.8369,0.54982 -7.31202,0.78492 -2.47513,0.2351 -4.98757,0.44271 -7.53588,0.62 -2.54831,0.17729 -5.13249,0.32425 -7.75111,0.43806 -2.61862,0.11381 -5.27168,0.19446 -7.95774,0.23912 -2.68607,0.0447 -5.40513,0.0533 -8.15577,0.0232 -2.75064,-0.0302 -5.53284,-0.0991 -8.34518,-0.20979 -2.81234,-0.11065 -5.65481,-0.26296 -8.52598,-0.45976 -2.87118,-0.19681 -5.77105,-0.43811 -8.69819,-0.72674 -2.92713,-0.28863 -5.88154,-0.62459 -8.86177,-1.01072 -2.98023,-0.38612 -38.48629,-10.82242 -41.51675,-11.31171 z"
             style="fill:#0b0b0b;fill-opacity:1;stroke:#3e3e3e;stroke-opacity:1" />
          <path
             sodipodi:nodetypes="cssssssssssssssssssssssccsssssssssssssssssssssssssssssscssssssssssssssssssssssssssssssscc"
             inkscape:connector-curvature="0"
             id="path5667-1"
             d="m 405.67586,421.88986 c 0,0 19.17437,-27.11467 19.4701,-27.57746 0.29574,-0.46277 0.72517,-1.15703 1.26001,-2.08287 0.53486,-0.92584 1.17511,-2.08329 1.89248,-3.47244 0.71736,-1.38917 1.51183,-3.01007 2.35511,-4.86283 0.84328,-1.85277 1.73537,-3.9374 2.64795,-6.25402 0.91258,-2.31662 1.84567,-4.86525 2.77095,-7.64601 0.92529,-2.78075 1.84278,-5.79365 2.72416,-9.03881 0.88138,-3.24516 1.72666,-6.7226 2.50754,-10.43243 0.39043,-1.85491 0.76477,-3.76793 1.11946,-5.73907 0.3547,-1.97114 0.68975,-4.00039 1.00163,-6.08778 0.31188,-2.08739 0.60059,-4.23291 0.86257,-6.43659 0.26199,-2.20367 0.49726,-4.4655 0.70229,-6.78549 0.20502,-2.32 0.37978,-4.69816 0.52076,-7.1345 0.14098,-2.43636 0.24816,-4.93089 0.31802,-7.48363 0.0699,-2.55272 0.10239,-5.16366 0.0941,-7.83282 -0.008,-2.66915 -0.0575,-5.39653 -0.15116,-8.18213 -0.0936,-2.78562 -0.23161,-5.62946 -0.41756,-8.53156 -0.18596,-2.9021 -0.41985,-5.86245 -0.70522,-8.88107 -0.28538,-3.01862 -0.62223,-6.09551 -1.0141,-9.23068 -0.39187,-3.13518 -0.83876,-6.32864 -1.3442,-9.5804 -0.50545,-3.25177 -1.06945,-6.56184 -1.69553,-9.93023 -0.6261,-3.36838 -1.31428,-6.79509 -2.0681,-10.28013 -0.75381,-3.48504 -1.57326,-7.02843 -2.46187,-10.63016 -2.12378,-10.68698 0.25199,-9.68914 5.04534,-9.60658 2.61834,0.49669 5.21377,1.03149 7.78473,1.60244 2.57095,0.57095 5.11743,1.17803 7.6379,1.81926 2.52045,0.64124 5.01488,1.31662 7.48172,2.02418 2.46685,0.70755 4.90611,1.44727 7.31625,2.21717 2.41012,0.7699 4.79111,1.56997 7.14141,2.39824 2.3503,0.82827 4.66991,1.68473 6.95727,2.5674 2.28736,0.88267 4.54248,1.79155 6.76379,2.72465 2.22131,0.93309 4.40883,1.89041 6.56098,2.86997 2.15216,0.97955 4.26896,1.98134 6.34884,3.00337 2.07989,1.02204 4.12287,2.06432 6.12738,3.12487 2.00451,1.06054 3.97055,2.13935 5.89657,3.23444 1.92604,1.09509 3.81204,2.20645 5.65646,3.3321 1.84443,1.12565 3.64729,2.26559 5.40701,3.41784 1.75972,1.15224 3.47631,2.3168 5.14821,3.49166 1.67192,1.17487 3.29914,2.36005 4.88012,3.55358 1.58097,1.19352 3.11569,2.39539 4.60269,3.60353 1.48706,1.20805 2.92608,2.42276 4.3159,3.64162 1.38982,1.21888 2.73026,2.44216 4.0198,3.6678 1.28954,1.22563 2.5282,2.45363 3.71438,3.68203 1.18618,1.22839 2.31991,2.45717 3.39962,3.68435 1.0797,1.22718 2.1054,2.45277 3.07553,3.67476 0.97012,1.22199 1.88468,2.44041 2.74212,3.65325 0.85742,1.21284 1.65774,2.42011 2.39937,3.61983 0.74163,1.19971 1.42458,2.39186 2.0473,3.57447 0.62272,1.18261 1.18521,2.35568 1.6859,3.51722 0.50069,1.16154 0.9396,2.31155 1.31517,3.44804 0.37557,1.1365 0.68778,2.25947 0.93511,3.36694 0.24733,1.10748 0.42975,2.19945 0.54572,3.27393 0.11597,1.07449 0.16549,2.13149 0.147,3.16901 -0.0185,1.03752 -0.10498,2.05558 -0.26104,3.05216 -0.15606,0.99659 -0.38168,1.97171 -0.67841,2.9234 0,0 -0.0149,0.0784 -0.0461,0.2322 -0.0312,0.15386 -0.0786,0.38316 -0.14356,0.68505 -0.0649,0.30188 -0.14745,0.67634 -0.24879,1.12047 -0.10133,0.44412 -0.22151,0.95792 -0.36183,1.5385 -0.14032,0.58057 -0.30077,1.22793 -0.48267,1.93915 -0.1819,0.71122 -0.38523,1.48633 -0.6113,2.3224 -0.22608,0.83608 -0.47489,1.73313 -0.74775,2.68827 -0.27285,0.95512 -0.56975,1.96833 -0.89198,3.03672 -0.32224,1.06838 -0.66981,2.19195 -1.04402,3.36779 -0.37422,1.17584 -0.77507,2.40397 -1.20387,3.68148 -0.42879,1.27749 -0.88553,2.60438 -1.3715,3.97775 -0.48597,1.37337 -1.00118,2.79322 -1.54694,4.25665 -0.54575,1.46343 -1.12205,2.97045 -1.73018,4.51815 -0.60814,1.5477 -1.24811,3.13608 -1.92123,4.76225 -0.67311,1.62616 -1.37937,3.29012 -2.12007,4.98896 -0.74069,1.69884 -1.51582,3.43256 -2.32669,5.19828 -0.81088,1.76571 -1.6575,3.56341 -2.54115,5.3902 -0.88366,1.82678 -1.80435,3.68266 -2.7634,5.56473 -0.95903,1.88207 -1.95641,3.79031 -2.99343,5.72186 -1.03701,1.93155 -2.11368,3.88639 -3.23128,5.86162 -1.1176,1.97523 -2.27614,3.97084 -3.47692,5.98396 -1.20078,2.0131 -2.4438,4.04372 -3.73036,6.08892 -1.28655,2.04519 -2.61667,4.10499 -3.9916,6.17647 -1.37495,2.07149 -2.79473,4.15468 -4.26066,6.24666 -1.46592,2.09198 -2.97799,4.19275 -4.53749,6.29942 -1.55951,2.10668 -3.16645,4.21925 -4.82214,6.33481 -1.65566,2.1156 -3.36014,4.23412 -5.11456,6.35283 -1.75451,2.11864 -3.55895,4.23745 -5.41483,6.35339 -1.85586,2.11597 -3.76305,4.22913 -5.72287,6.3366 -1.95985,2.10747 -3.97232,4.20923 -6.03874,6.30241 -2.06641,2.09317 -4.18677,4.17775 -6.36237,6.25082 -2.17559,2.07308 -32.6308,23.0987 -34.91818,25.14589 z"
             style="fill:#0b0b0b;fill-opacity:1;stroke:#3e3e3e;stroke-opacity:1" />
          <path
             sodipodi:nodetypes="cssssssssssssssssssssssccsssssssssssssssssssssssssssssscssssssssssssssssssssssssssssssscc"
             inkscape:connector-curvature="0"
             id="path5667-1-3"
             d="m 346.82382,434.05007 c 0,0 -9.00524,-31.96509 -9.17878,-32.48616 -0.17353,-0.52107 -0.44282,-1.29171 -0.82575,-2.29001 -0.38291,-0.99831 -0.8795,-2.22429 -1.50762,-3.65601 -0.62813,-1.43172 -1.38783,-3.06921 -2.29701,-4.89054 -0.90917,-1.82134 -1.96783,-3.82652 -3.19387,-5.99363 -1.22605,-2.1671 -2.61949,-4.49615 -4.19825,-6.96522 -1.57875,-2.46907 -3.34282,-5.07817 -5.31011,-7.80538 -1.96729,-2.7272 -4.13782,-5.57253 -6.52947,-8.51406 -1.19583,-1.47076 -2.44695,-2.96558 -3.7556,-4.4817 -1.30864,-1.51613 -2.67481,-3.05356 -4.10075,-4.60958 -1.42593,-1.55601 -2.91162,-3.1306 -4.45933,-4.72102 -1.5477,-1.59042 -3.15741,-3.19667 -4.83135,-4.81603 -1.67396,-1.61935 -3.41216,-3.25179 -5.21683,-4.89459 -1.80468,-1.64281 -3.67585,-3.29596 -5.61573,-4.95675 -1.93985,-1.6608 -3.94849,-3.32917 -6.02803,-5.00248 -2.07935,-1.67353 -4.23008,-3.35146 -6.45384,-5.03171 -2.22373,-1.6803 -4.52067,-3.36274 -6.89304,-5.04458 -2.37239,-1.68183 -4.8202,-3.36307 -7.3457,-5.04098 -2.5255,-1.67789 -5.12868,-3.35246 -7.81178,-5.02095 -2.6831,-1.66849 -5.44613,-3.3309 -8.2913,-4.9845 -2.84519,-1.6536 -5.77254,-3.29838 -8.78427,-4.93162 -3.01174,-1.63322 -6.10788,-3.2549 -9.29066,-4.86228 -3.18277,-1.60739 -6.4522,-3.20048 -9.81049,-4.77655 -9.64188,-5.07504 -7.37129,-6.2934 -4.29058,-9.96658 2.03378,-1.72225 4.08275,-3.40272 6.14442,-5.04142 2.06166,-1.63869 4.136,-3.23563 6.22052,-4.79087 2.0845,-1.55521 4.17917,-3.06872 6.28148,-4.54053 2.10231,-1.47182 4.21225,-2.90197 6.32733,-4.29048 2.11506,-1.3885 4.23524,-2.73538 6.35802,-4.04066 2.12277,-1.30528 4.24815,-2.56897 6.37359,-3.7911 2.12545,-1.22213 4.25097,-2.40271 6.37404,-3.54177 2.12307,-1.13907 4.24369,-2.23663 6.35935,-3.29271 2.11565,-1.05609 4.22633,-2.07071 6.32951,-3.04389 2.10319,-0.97319 4.19888,-1.90495 6.28456,-2.79533 2.08568,-0.89037 4.16134,-1.73936 6.22447,-2.54699 2.06314,-0.80765 4.11373,-1.57395 6.14925,-2.29894 2.03553,-0.725 4.05601,-1.40869 6.0589,-2.05112 2.00289,-0.64243 3.98821,-1.24359 5.95341,-1.80354 1.96522,-0.55995 3.91032,-1.07868 5.83281,-1.55622 1.92247,-0.47754 3.82233,-0.91388 5.69703,-1.30919 1.87467,-0.39541 3.72428,-0.7493 5.54616,-1.06234 1.82189,-0.31302 3.61612,-0.58491 5.38015,-0.81575 1.76403,-0.23084 3.49788,-0.42066 5.19901,-0.56944 1.70113,-0.14878 3.36955,-0.25656 5.00273,-0.32336 1.63318,-0.0668 3.23113,-0.0926 4.79132,-0.0775 1.56018,0.0151 3.08262,0.0711 4.56478,0.16803 1.48215,0.0969 2.92403,0.23472 4.32311,0.41337 1.39907,0.17865 2.75534,0.39814 4.06629,0.65844 1.31095,0.2603 2.57659,0.5614 3.79437,0.90327 1.21778,0.34187 2.38772,0.7245 3.50729,1.14784 1.11958,0.42335 2.18877,0.88743 3.20509,1.39217 1.01632,0.50475 1.97974,1.05018 2.88775,1.63625 0.90802,0.58607 1.76063,1.21278 2.5553,1.88008 0.79466,0.66731 1.53142,1.3752 2.20769,2.12365 0.67629,0.74846 1.29211,1.53746 1.84497,2.36698 0,0 0.0515,0.0609 0.15144,0.18195 0.0999,0.12108 0.24831,0.30222 0.44204,0.54269 0.19376,0.24041 0.43282,0.54022 0.7142,0.89848 0.28138,0.35824 0.60505,0.77498 0.96794,1.2494 0.36288,0.47442 0.765,1.0065 1.20324,1.59545 0.43825,0.58895 0.91267,1.23476 1.42014,1.93661 0.50748,0.70186 1.04804,1.45975 1.61861,2.27289 0.57056,0.81312 1.17112,1.68149 1.79863,2.60427 0.6275,0.92278 1.28194,1.89998 1.96024,2.93077 0.6783,1.03081 1.38047,2.11521 2.10343,3.25242 0.72295,1.13718 1.4667,2.32717 2.22818,3.56913 0.76148,1.24196 1.54068,2.53589 2.33452,3.881 0.79384,1.34509 1.60234,2.74136 2.42242,4.18796 0.82008,1.44662 1.65173,2.94357 2.4919,4.49006 0.84016,1.54648 1.68883,3.14251 2.54294,4.78726 0.85412,1.64474 1.71367,3.33819 2.57559,5.07956 0.86191,1.74137 1.72619,3.53065 2.58978,5.36701 0.86357,1.83636 1.72645,3.71981 2.58554,5.64956 0.85911,1.92973 1.71441,3.90574 2.56289,5.92721 0.84849,2.02148 1.69011,4.08843 2.52183,6.20002 0.83171,2.11159 1.6535,4.26782 2.46231,6.4679 0.8088,2.20007 1.60463,4.44399 2.38439,6.73092 0.77976,2.28691 1.54345,4.61688 2.28802,6.98903 0.74457,2.37217 1.47001,4.78654 2.17325,7.24231 0.70324,2.45576 1.38427,4.95291 2.04003,7.49064 0.65577,2.53774 1.28626,5.11606 1.8884,7.73413 0.60219,2.61808 1.17593,5.27594 1.71838,7.97273 0.54235,2.69681 1.0534,5.43254 1.52985,8.20643 0.47649,2.7739 0.91849,5.58592 1.32295,8.43526 0.40443,2.84936 0.77132,5.73602 1.09759,8.65921 0.32626,2.92318 0.6119,5.88288 0.85383,8.87826 0.24194,2.99538 -2.58417,39.89538 -2.4327,42.96135 z"
             style="fill:#0b0b0b;fill-opacity:1;stroke:#3e3e3e;stroke-opacity:1" />
          <path
             sodipodi:nodetypes="cssssssssssssssssssssssccsssssssssssssssssssssssssssssscssssssssssssssssssssssssssssssscc"
             inkscape:connector-curvature="0"
             id="path5667-1-3-8"
             d="m 318.02739,489.26248 c 0,0 -30.50872,-13.1179 -31.02288,-13.31095 -0.51416,-0.19306 -1.28253,-0.46877 -2.29934,-0.79942 -1.0168,-0.33068 -2.28208,-0.7163 -3.79003,-1.12917 -1.50795,-0.41286 -3.25861,-0.85297 -5.24621,-1.2926 -1.98761,-0.43965 -4.21217,-0.87882 -6.6679,-1.28981 -2.45573,-0.41098 -5.14266,-0.79379 -8.05503,-1.1207 -2.91237,-0.32692 -6.05019,-0.59794 -9.40768,-0.78536 -3.35749,-0.18741 -6.93469,-0.29121 -10.7258,-0.28372 -1.89556,0.004 -3.8446,0.0353 -5.84641,0.0982 -2.00181,0.0629 -4.05638,0.15705 -6.163,0.28598 -2.10662,0.12892 -4.26528,0.2926 -6.47527,0.49451 -2.20999,0.20191 -4.4713,0.44204 -6.78323,0.72384 -2.31193,0.28182 -4.67446,0.60533 -7.08687,0.97397 -2.41242,0.36865 -4.87473,0.78246 -7.38621,1.24486 -2.51147,0.46237 -5.07211,0.97344 -7.68122,1.5365 -2.60915,0.56277 -5.26665,1.17825 -7.9719,1.84902 -2.70528,0.67071 -5.45829,1.39698 -8.25831,2.18224 -2.80002,0.78528 -5.64705,1.62955 -8.54037,2.53629 -2.89332,0.90675 -5.83294,1.87596 -8.81813,2.9111 -2.98519,1.03515 -6.01595,2.13624 -9.09157,3.30671 -3.07562,1.17048 -6.1961,2.41036 -9.36071,3.72309 -3.1646,1.31274 -6.37334,2.69834 -9.6255,4.16026 -3.25216,1.46192 -6.54774,3.00018 -9.88602,4.61821 -10.01187,4.29932 -9.52979,1.768 -10.44563,-2.93777 -0.0585,-2.66439 -0.0751,-5.31429 -0.0511,-7.94778 0.0239,-2.63347 0.0883,-5.25052 0.19149,-7.84924 0.10319,-2.59869 0.24519,-5.17904 0.42441,-7.73908 0.17921,-2.56005 0.3956,-5.0998 0.64759,-7.61734 0.25198,-2.51752 0.53953,-5.01283 0.86105,-7.48398 0.32151,-2.47114 0.67698,-4.91814 1.06479,-7.33903 0.38782,-2.42089 0.80797,-4.8157 1.25884,-7.18247 0.45087,-2.36677 0.93245,-4.70552 1.44315,-7.01431 0.51069,-2.30879 1.05047,-4.58761 1.61775,-6.83453 0.56727,-2.24694 1.16201,-4.46197 1.78262,-6.64318 0.62061,-2.18121 1.26708,-4.32859 1.9378,-6.4402 0.67072,-2.11163 1.36567,-4.18748 2.08325,-6.22562 0.71757,-2.03817 1.45777,-4.03863 2.21897,-5.99947 0.76119,-1.96083 1.54341,-3.88203 2.34498,-5.76167 0.80159,-1.87965 1.62256,-3.71772 2.4613,-5.51231 0.83873,-1.79456 1.69525,-3.54563 2.56783,-5.25132 0.87247,-1.70573 1.76145,-3.36586 2.66471,-4.97873 0.90329,-1.61286 1.82114,-3.17835 2.75188,-4.69453 0.93075,-1.51618 1.87438,-2.98309 2.82931,-4.39875 0.95493,-1.41565 1.92114,-2.78009 2.89702,-4.09135 0.97588,-1.31125 1.96145,-2.56933 2.95505,-3.77232 0.99359,-1.20299 1.99521,-2.3509 3.00329,-3.44176 1.00805,-1.09086 2.02256,-2.12468 3.04187,-3.09954 1.0193,-0.97486 2.04341,-1.89075 3.0707,-2.74573 1.0273,-0.85499 2.0578,-1.64909 3.08985,-2.38034 1.03206,-0.73124 2.06569,-1.39966 3.09925,-2.00331 1.03358,-0.60366 2.0671,-1.14252 3.09895,-1.61471 1.03185,-0.47218 2.06203,-0.87764 3.08892,-1.21447 1.0269,-0.33684 2.05051,-0.60504 3.0692,-0.80267 1.0187,-0.19762 2.03249,-0.3247 3.03972,-0.37925 1.00727,-0.0546 2.00799,-0.0366 3.00057,0.0558 0,0 0.0797,-0.002 0.23671,-0.003 0.15696,-0.001 0.39113,-0.003 0.69993,-0.002 0.30877,7.1e-4 0.69221,0.004 1.14771,0.0104 0.45548,0.007 0.98304,0.0175 1.58011,0.034 0.59706,0.0166 1.26363,0.0389 1.99712,0.069 0.7335,0.0301 1.53395,0.0678 2.39875,0.11509 0.86482,0.0473 1.794,0.10417 2.785,0.17248 0.99097,0.0683 2.04377,0.14807 3.15581,0.24112 1.11203,0.0931 2.28331,0.19945 3.51125,0.32101 1.22796,0.12157 2.51259,0.25831 3.85134,0.41214 1.33872,0.15381 2.73158,0.32469 4.17597,0.5145 1.4444,0.18981 2.94034,0.39856 4.48527,0.62813 1.54491,0.22957 3.13882,0.47994 4.77913,0.753 1.64033,0.27306 3.32705,0.56881 5.05764,0.88911 1.73057,0.32031 3.505,0.66518 5.32072,1.03649 1.81572,0.37129 3.67271,0.76902 5.56843,1.19506 1.89572,0.42605 3.83016,0.88041 5.80076,1.36493 1.97058,0.48454 3.97732,0.99925 6.01766,1.54604 2.04034,0.54677 4.11424,1.12562 6.21919,1.73838 2.10495,0.61275 4.24092,1.25947 6.40536,1.94197 2.16442,0.6825 4.3573,1.40081 6.57608,2.1568 2.21877,0.756 4.46346,1.54966 6.73145,2.38289 2.26799,0.83321 4.55932,1.70601 6.8714,2.62021 2.31209,0.91422 4.64495,1.86986 6.996,2.8688 2.35105,0.99894 4.72028,2.04119 7.10515,3.12861 2.38489,1.08743 4.7854,2.22003 7.19896,3.39969 2.4136,1.17962 4.84021,2.40639 7.27739,3.68197 2.43712,1.27567 4.8848,2.60016 7.34036,3.97555 2.45559,1.37537 4.9191,2.80154 7.38798,4.28036 2.46889,1.47886 4.94314,3.01037 7.42021,4.59643 2.47706,1.58607 4.95694,3.22668 7.43704,4.92372 2.4801,1.69703 29.37826,27.11525 31.85629,28.92702 z"
             style="fill:#0b0b0b;fill-opacity:1;stroke:#3e3e3e;stroke-opacity:1" />
          <path
             sodipodi:nodetypes="cssssssssssssssssssssssccsssssssssssssssssssssssssssssscssssssssssssssssssssssssssssssscc"
             inkscape:connector-curvature="0"
             id="path5667-1-3-8-8"
             d="m 343.04437,546.01804 c 0,0 -29.39429,15.45437 -29.86789,15.73245 -0.4736,0.27808 -1.17142,0.70171 -2.06828,1.28384 -0.89688,0.58209 -1.99283,1.32272 -3.26268,2.23479 -1.26983,0.91208 -2.71359,1.99563 -4.30608,3.26361 -1.59252,1.26799 -3.33378,2.72042 -5.19862,4.37023 -1.86483,1.64982 -3.85327,3.49705 -5.94014,5.55466 -2.08688,2.0576 -4.2722,4.32558 -6.53078,6.81689 -2.25859,2.49132 -4.59046,5.20601 -6.97046,8.15696 -1.18981,1.47565 -2.39205,3.01004 -3.60295,4.60532 -1.2109,1.59528 -2.43071,3.25123 -3.65625,4.96952 -1.22555,1.71828 -2.45684,3.49889 -3.69072,5.34344 -1.23388,1.84455 -2.47035,3.75303 -3.70629,5.72708 -1.23593,1.97407 -2.47131,4.01369 -3.703,6.12048 -1.23169,2.1068 -2.45968,4.28079 -3.68085,6.52357 -1.22119,2.24276 -2.43548,4.55438 -3.63987,6.93638 -1.20463,2.38186 -2.39873,4.83446 -3.57992,7.35896 -1.18125,2.52449 -2.34935,5.12104 -3.5012,7.79124 -1.15183,2.67022 -2.28741,5.41409 -3.40356,8.23325 -1.11615,2.81917 -2.2129,5.71363 -3.28708,8.68499 -1.07418,2.97137 -2.12579,6.01965 -3.15172,9.14646 -1.02591,3.12681 -2.02613,6.33216 -2.9975,9.61765 -0.97135,3.28549 -1.91387,6.65114 -2.82439,10.09856 -0.91053,3.44742 -1.78905,6.97662 -2.63245,10.58921 -2.95948,10.48634 -4.6233,8.51868 -8.85673,6.26898 -2.10743,-1.63129 -4.17724,-3.28602 -6.20874,-4.96198 -2.03155,-1.67587 -4.02485,-3.37289 -5.9795,-5.08851 -1.95462,-1.7156 -3.87056,-3.44982 -5.7473,-5.20019 -1.87675,-1.75036 -3.71433,-3.51684 -5.51224,-5.29702 -1.79791,-1.78015 -3.55617,-3.57397 -5.27427,-5.37898 -1.71811,-1.805 -3.39608,-3.6212 -5.03341,-5.4461 -1.63732,-1.8249 -3.23402,-3.65852 -4.7896,-5.49837 -1.55559,-1.83985 -3.07007,-3.68593 -4.54294,-5.53578 -1.47288,-1.84985 -2.90416,-3.70345 -4.29335,-5.55834 -1.3892,-1.8549 -2.73632,-3.71106 -4.04088,-5.56605 -1.30455,-1.85498 -2.56654,-3.70877 -3.78548,-5.5589 -1.21894,-1.85014 -2.39483,-3.69659 -3.52718,-5.5369 -1.13237,-1.84032 -2.2212,-3.67449 -3.26602,-5.50005 -1.04482,-1.82555 -2.0456,-3.6425 -3.00191,-5.44833 -0.95631,-1.80585 -1.86811,-3.6006 -2.73493,-5.3818 -0.8668,-1.78116 -1.68861,-3.54879 -2.46505,-5.30034 -0.77654,-1.75148 -1.50725,-3.48711 -2.19225,-5.20408 -0.68496,-1.717 -1.32396,-3.41549 -1.91652,-5.09298 -0.59255,-1.67749 -1.13871,-3.33398 -1.63792,-4.96701 -0.49921,-1.63302 -0.95153,-3.24257 -1.35643,-4.82618 -0.40489,-1.58359 -0.76236,-3.14126 -1.07197,-4.6705 -0.30961,-1.52923 -0.57136,-3.03004 -0.78472,-4.49996 -0.21337,-1.46991 -0.37834,-2.90893 -0.49448,-4.31458 -0.11614,-1.40565 -0.18343,-2.77792 -0.20138,-4.11433 -0.018,-1.33642 0.0134,-2.63702 0.0946,-3.89926 0.0812,-1.26225 0.21224,-2.48618 0.39355,-3.66929 0.18132,-1.18314 0.41297,-2.32545 0.69537,-3.42451 0.28241,-1.09905 0.61562,-2.15482 1.0001,-3.16483 0.38447,-1.01003 0.82022,-1.97431 1.30772,-2.89036 0.48751,-0.91604 1.02675,-1.78388 1.61822,-2.60097 0.59147,-0.81716 1.23523,-1.58354 1.93169,-2.29677 0,0 0.0486,-0.0632 0.14663,-0.18584 0.098,-0.12261 0.24382,-0.30586 0.43893,-0.54521 0.19487,-0.23951 0.43873,-0.53543 0.73036,-0.88539 0.29208,-0.34957 0.63225,-0.75296 1.02082,-1.20658 0.38864,-0.45356 0.82546,-0.95755 1.31045,-1.50863 0.485,-0.5511 1.01803,-1.14944 1.59902,-1.79175 0.58101,-0.64233 1.20996,-1.32865 1.8867,-2.05581 0.67672,-0.72714 1.40126,-1.49512 2.1734,-2.30078 0.77218,-0.80562 1.59194,-1.64895 2.45918,-2.52674 0.86725,-0.8778 1.78196,-1.79009 2.74401,-2.73368 0.96202,-0.94359 1.97138,-1.91851 3.02787,-2.92156 1.0565,-1.00305 2.16015,-2.03425 3.31082,-3.09041 1.15065,-1.05615 2.34831,-2.13729 3.59279,-3.2402 1.24451,-1.10294 2.53583,-2.22764 3.87385,-3.37099 1.33801,-1.14333 2.72271,-2.30529 4.15394,-3.4827 1.43122,-1.17741 2.90895,-2.37027 4.43306,-3.5754 1.52412,-1.20513 3.09461,-2.42254 4.71129,-3.64906 1.61668,-1.2265 3.27957,-2.46211 4.98853,-3.70365 1.70895,-1.24155 3.46395,-2.48899 5.26484,-3.73922 1.80089,-1.25023 3.64769,-2.5032 5.54022,-3.75578 1.89252,-1.25255 3.83077,-2.5047 5.81461,-3.75325 1.98384,-1.24854 4.01326,-2.49353 6.08809,-3.73172 2.07482,-1.2382 4.19509,-2.46963 6.3606,-3.69113 2.16553,-1.22149 4.37632,-2.43306 6.6322,-3.63152 2.25589,-1.19845 4.55687,-2.38378 6.9028,-3.55284 2.34596,-1.16906 4.73684,-2.32184 7.17251,-3.45515 2.43567,-1.13336 4.91616,-2.24716 7.44124,-3.33845 2.52511,-1.09119 5.09481,-2.15987 7.70902,-3.20264 2.61422,-1.0428 5.2729,-2.05979 7.97587,-3.04782 2.70301,-0.98801 5.45032,-1.94705 8.24179,-2.87396 2.79147,-0.92689 5.6271,-1.82165 8.50673,-2.68107 2.87962,-0.85942 39.56084,-5.76701 42.52833,-6.55262 z"
             style="fill:#0b0b0b;fill-opacity:1;stroke:#3e3e3e;stroke-opacity:1" />
          <path
             sodipodi:nodetypes="cssssssssssssssssssssssccsssssssssssssssssssssssssssssscssssssssssssssssssssssssssssssscc"
             inkscape:connector-curvature="0"
             id="path5667-1-3-8-8-4"
             d="m 403.75567,561.727 c 0,0 -6.48812,32.56941 -6.57006,33.11246 -0.0819,0.54306 -0.19187,1.35197 -0.30388,2.41531 -0.11206,1.06332 -0.22618,2.38113 -0.31651,3.94197 -0.0903,1.56084 -0.15683,3.36475 -0.17361,5.40031 -0.0168,2.03559 0.0161,4.30285 0.12471,6.79036 0.10858,2.48751 0.29278,5.19532 0.57853,8.11202 0.28574,2.9167 0.67303,6.0423 1.18777,9.36538 0.51474,3.32309 1.15696,6.8437 1.95249,10.5504 0.39803,1.85332 0.83388,3.75326 1.3116,5.69824 0.47772,1.94499 0.99698,3.93509 1.56109,5.96886 0.56409,2.03378 1.17301,4.11125 1.82999,6.23097 0.65698,2.11972 1.36201,4.28168 2.11833,6.48449 0.75634,2.20282 1.56398,4.44647 2.42613,6.72952 0.86217,2.28305 1.77887,4.60552 2.75334,6.96597 0.97443,2.36046 2.00672,4.75889 3.09993,7.19392 1.09295,2.43512 2.24751,4.90658 3.46607,7.41326 1.21851,2.50672 2.5013,5.04856 3.85155,7.62413 1.35028,2.57556 2.76803,5.18485 4.25651,7.82642 1.48849,2.64157 3.0477,5.31545 4.68088,8.02018 1.63318,2.70474 3.34034,5.44034 5.12469,8.20541 1.78436,2.76504 3.64592,5.55955 5.58793,8.38207 1.94201,2.82251 3.96447,5.67306 6.0706,8.5502 2.10614,2.87714 4.29597,5.78088 6.57271,8.7098 6.28696,8.89922 3.71072,8.95396 -0.70181,10.82817 -2.594,0.61118 -5.18254,1.17837 -7.76347,1.70242 -2.58089,0.52415 -5.15414,1.00527 -7.71753,1.44464 -2.56336,0.43937 -5.11684,0.83695 -7.6582,1.19391 -2.54136,0.35697 -5.0706,0.67336 -7.58552,0.95029 -2.5149,0.27695 -5.01547,0.51449 -7.49946,0.71378 -2.48399,0.1993 -4.95143,0.36035 -7.40004,0.48435 -2.44862,0.12399 -4.87844,0.21092 -7.28723,0.26198 -2.4088,0.0511 -4.79657,0.0663 -7.16108,0.0467 -2.36451,-0.0195 -4.70577,-0.0737 -7.02153,-0.16142 -2.31578,-0.0877 -4.60606,-0.20892 -6.86864,-0.36247 -2.26257,-0.15355 -4.49743,-0.33943 -6.70236,-0.55646 -2.20493,-0.21704 -4.3799,-0.46521 -6.52271,-0.74335 -2.14282,-0.27814 -4.25346,-0.58624 -6.32971,-0.92312 -2.07625,-0.33688 -4.11809,-0.70257 -6.12331,-1.09582 -2.00524,-0.39327 -3.97383,-0.81414 -5.90359,-1.26144 -1.92972,-0.44729 -3.82061,-0.92103 -5.67045,-1.41991 -1.84984,-0.49876 -3.65853,-1.02316 -5.42395,-1.57133 -1.76542,-0.54823 -3.48753,-1.12053 -5.1641,-1.71571 -1.67656,-0.59518 -3.3076,-1.21319 -4.89087,-1.85293 -1.58325,-0.63974 -3.11876,-1.30114 -4.60427,-1.98307 -1.48549,-0.68193 -2.92099,-1.3844 -4.30427,-2.10617 -1.38328,-0.72176 -2.71436,-1.46283 -3.99097,-2.22207 -1.27661,-0.75923 -2.49876,-1.53662 -3.66424,-2.33097 -1.16549,-0.79435 -2.27429,-1.60565 -3.32417,-2.43273 -1.04992,-0.82705 -2.04092,-1.66994 -2.97076,-2.5274 -0.92985,-0.85747 -1.79856,-1.72955 -2.60391,-2.61501 -0.80536,-0.88548 -1.54732,-1.78439 -2.22373,-2.69552 -0.6764,-0.91112 -1.28719,-1.83449 -1.83015,-2.76891 -0.54299,-0.93442 -1.01815,-1.87991 -1.42326,-2.83525 -0.4051,-0.95535 -0.74018,-1.92057 -1.00295,-2.89444 -0.26283,-0.97391 -0.45329,-1.95651 -0.56928,-2.94661 0,0 -0.0185,-0.0775 -0.0521,-0.2309 -0.0336,-0.15333 -0.0842,-0.38197 -0.14748,-0.68423 -0.0635,-0.30217 -0.14,-0.67791 -0.22844,-1.12479 -0.0879,-0.44698 -0.18727,-0.9652 -0.29527,-1.55265 -0.1079,-0.58747 -0.22468,-1.24411 -0.34773,-1.96782 -0.12307,-0.72374 -0.25262,-1.51453 -0.38616,-2.37026 -0.13354,-0.85576 -0.2711,-1.77646 -0.41032,-2.76 -0.13922,-0.98352 -0.28009,-2.0299 -0.42028,-3.13698 -0.14013,-1.10709 -0.27963,-2.27489 -0.41603,-3.50127 -0.1364,-1.2264 -0.26974,-2.51139 -0.39761,-3.85286 -0.12789,-1.34145 -0.25033,-2.73941 -0.36498,-4.19169 -0.11464,-1.4523 -0.22148,-2.95895 -0.31813,-4.51785 -0.0967,-1.55888 -0.18315,-3.17002 -0.25709,-4.83125 -0.074,-1.66127 -0.13535,-3.37261 -0.18186,-5.13198 -0.0465,-1.75935 -0.0781,-3.56671 -0.0924,-5.41995 -0.0143,-1.85323 -0.0114,-3.75234 0.0112,-5.69521 0.0226,-1.94287 0.0648,-3.92951 0.12906,-5.95778 0.0642,-2.02826 0.15048,-4.09816 0.2611,-6.2076 0.11062,-2.10944 0.24563,-4.25837 0.40736,-6.44472 0.16172,-2.18635 0.35021,-4.4101 0.56778,-6.66915 0.21759,-2.25902 0.46426,-4.55332 0.74243,-6.88079 0.27817,-2.32747 0.58779,-4.68812 0.93127,-7.07979 0.34346,-2.39166 0.72079,-4.81438 1.13431,-7.26601 0.41353,-2.45165 0.86326,-4.93222 1.35155,-7.43958 0.48831,-2.50737 1.01519,-5.04152 1.583,-7.60036 0.56783,-2.55887 1.17659,-5.1424 1.82866,-7.74849 0.65203,-2.60612 1.34747,-5.23476 2.08846,-7.88389 0.74109,-2.64908 1.52773,-5.31866 2.36252,-8.00652 0.83478,-2.68788 1.71759,-5.39408 2.65078,-8.11647 0.93323,-2.7224 1.91686,-5.46101 2.95324,-8.21371 1.0364,-2.75269 2.12556,-5.51948 3.26988,-8.29822 1.14431,-2.77874 20.41463,-34.37385 21.6716,-37.17442 z"
             style="fill:#0b0b0b;fill-opacity:1;stroke:#3e3e3e;stroke-opacity:1" />
          <path
             sodipodi:nodetypes="cssssssssssssssssssssssccsssssssssssssssssssssssssssssscssssssssssssssssssssssssssssssscc"
             inkscape:connector-curvature="0"
             id="path5667-1-3-8-8-4-5"
             d="m 453.98255,522.68399 c 0,0 21.22808,25.53881 21.59854,25.94424 0.3705,0.4054 0.92993,0.99993 1.68581,1.75616 0.75584,0.75626 1.70815,1.67427 2.8643,2.72674 1.15618,1.05244 2.51621,2.23938 4.08758,3.53344 1.57137,1.2941 3.35407,2.69536 5.35558,4.1764 2.00149,1.48105 4.22177,3.04198 6.6683,4.65545 2.44653,1.61348 5.1193,3.2795 8.02576,4.97076 2.90646,1.69126 6.04665,3.40775 9.42794,5.12221 1.69079,0.857 3.44161,1.71396 5.25378,2.56671 1.81218,0.85277 3.68556,1.70164 5.6211,2.54313 1.93554,0.84152 3.93324,1.6757 5.99403,2.49911 2.06078,0.82341 4.18463,1.63607 6.3725,2.43457 2.18789,0.79849 4.4398,1.58281 6.75663,2.34957 2.31685,0.76674 4.69864,1.5159 7.14631,2.24408 2.44765,0.72821 4.96122,1.43535 7.54158,2.11818 2.58026,0.68309 5.22753,1.34117 7.94245,1.97167 2.71492,0.63057 5.49759,1.23329 8.34892,1.80481 2.85135,0.57149 5.77136,1.11177 8.76098,1.61739 2.98962,0.50562 6.04886,0.97662 9.17862,1.40954 3.12977,0.43293 6.33009,0.82779 9.60188,1.1812 3.27177,0.35339 6.61503,0.66533 10.03069,0.93237 3.41565,0.26704 6.90371,0.4892 10.4651,0.66307 3.5614,0.17387 7.19613,0.29943 10.90513,0.3733 10.8725,0.71458 9.29376,2.75114 7.9734,7.3598 -1.15748,2.40054 -2.34571,4.76916 -3.56268,7.10472 -1.21686,2.33558 -2.46236,4.63815 -3.7341,6.90679 -1.27172,2.2686 -2.5697,4.50324 -3.89162,6.70289 -1.32191,2.19965 -2.66773,4.36435 -4.03521,6.49309 -1.36744,2.12873 -2.7565,4.22153 -4.16485,6.27737 -1.40834,2.05585 -2.83599,4.07476 -4.28058,6.05572 -1.44461,1.98097 -2.90619,3.924 -4.38241,5.82811 -1.4762,1.90415 -2.96705,3.76936 -4.47032,5.5946 -1.50319,1.8253 -3.01871,3.61069 -4.54424,5.35517 -1.52552,1.7445 -3.06105,3.4481 -4.60427,5.10982 -1.54321,1.66172 -3.09411,3.28155 -4.65038,4.85852 -1.55628,1.57697 -3.1179,3.11106 -4.68257,4.6013 -1.56467,1.49024 -3.13238,2.93662 -4.70081,4.33817 -1.56843,1.40154 -3.1376,2.75821 -4.70514,4.06908 -1.56756,1.31087 -3.13351,2.57589 -4.69557,3.7941 -1.56202,1.21819 -3.12016,2.38955 -4.67201,3.51319 -1.55175,1.12372 -3.09753,2.19932 -4.63455,3.22633 -1.53707,1.02698 -3.06559,2.00515 -4.58323,2.93353 -1.51764,0.92837 -3.02437,1.807 -4.51792,2.63483 -1.49355,0.82782 -2.97388,1.6049 -4.4387,2.33021 -1.46481,0.72529 -2.91412,1.3988 -4.34557,2.01959 -1.43143,0.62079 -2.84503,1.18886 -4.23847,1.70317 -1.39343,0.51431 -2.7667,0.97487 -4.11748,1.38072 -1.35079,0.40586 -2.67908,0.75699 -3.98256,1.0524 -1.30347,0.29546 -2.58218,0.53516 -3.83371,0.71817 -1.25156,0.183 -2.47599,0.3093 -3.67094,0.37794 -1.19498,0.0686 -2.36049,0.0795 -3.49425,0.0318 -1.13375,-0.0477 -2.23573,-0.15415 -3.3036,-0.32024 -1.0679,-0.16607 -2.10171,-0.39182 -3.09909,-0.6782 -0.99739,-0.2864 -1.95837,-0.63343 -2.88058,-1.04209 -0.92228,-0.40865 -1.80576,-0.879 -2.64821,-1.41195 0,0 -0.0719,-0.0344 -0.21223,-0.10482 -0.1403,-0.0704 -0.34983,-0.17495 -0.62456,-0.31599 -0.27479,-0.14081 -0.61494,-0.31782 -1.01788,-0.53032 -0.40269,-0.21298 -0.86796,-0.46189 -1.39246,-0.74765 -0.52445,-0.28585 -1.10825,-0.60833 -1.74812,-0.96815 -0.6399,-0.35982 -1.33599,-0.7568 -2.08505,-1.19155 -0.74909,-0.43477 -1.55118,-0.90728 -2.40315,-1.41805 -0.85195,-0.51075 -1.75379,-1.05978 -2.70238,-1.64754 -0.94856,-0.58782 -1.9439,-1.21432 -2.98281,-1.88011 -1.03893,-0.66579 -2.12147,-1.37084 -3.24446,-2.11568 -1.12299,-0.74481 -2.28646,-1.52942 -3.48725,-2.35427 -1.20079,-0.82487 -2.43891,-1.69001 -3.71123,-2.59594 -1.27233,-0.90589 -2.57883,-1.85263 -3.91638,-2.84061 -1.33762,-0.98796 -2.70619,-2.01727 -4.10275,-3.08833 -1.39653,-1.07106 -2.821,-2.18391 -4.27024,-3.33908 -1.44923,-1.15516 -2.92329,-2.35256 -4.41896,-3.59281 -1.49567,-1.24025 -3.01302,-2.52328 -4.54884,-3.84965 -1.53585,-1.32632 -3.09017,-2.696 -4.6599,-4.10949 -1.56973,-1.41348 -3.15479,-2.87077 -4.75213,-4.37237 -1.59734,-1.50159 -3.20689,-3.04753 -4.82558,-4.63828 -1.61866,-1.59074 -3.24643,-3.22629 -4.88016,-4.9072 -1.63372,-1.6809 -3.27344,-3.40712 -4.91596,-5.17918 -1.64252,-1.77204 -3.28787,-3.58995 -4.9329,-5.45418 -1.64505,-1.86424 -3.28979,-3.77482 -4.93109,-5.73223 -1.64129,-1.95743 -3.27911,-3.96168 -4.91037,-6.01328 -1.63127,-2.05164 -3.25594,-4.1506 -4.8709,-6.29742 -1.615,-2.14681 -3.22018,-4.34152 -4.81262,-6.58453 -1.59234,-2.24306 -3.17194,-4.53441 -4.73545,-6.87469 -1.56353,-2.34028 -3.11107,-4.72942 -4.63949,-7.1679 -1.5284,-2.43852 -3.03769,-4.92641 -4.52472,-7.46416 -1.48701,-2.53776 -2.95178,-5.12539 -4.39113,-7.76341 -1.43935,-2.63801 -13.86615,-37.49731 -15.25157,-40.23662 z"
             style="fill:#0b0b0b;fill-opacity:1;stroke:#3e3e3e;stroke-opacity:1" />
        </g>
        <path
           sodipodi:type="arc"
           style="fill:#0b0b0b;fill-opacity:1;stroke:#131313;stroke-width:2.52768135;stroke-miterlimit:4;stroke-opacity:1;stroke-dasharray:none"
           id="path5665"
           sodipodi:cx="365.71429"
           sodipodi:cy="478.07648"
           sodipodi:rx="65"
           sodipodi:ry="65"
           d="m 430.71429,478.07648 c 0,35.89851 -29.10149,65 -65,65 -35.8985,0 -65,-29.10149 -65,-65 0,-35.89851 29.1015,-65 65,-65 35.89851,0 65,29.10149 65,65 z"
           transform="matrix(1.582478,0,0,1.582478,-189.43795,-264.89762)" />
      </g>
      <g
         transform="matrix(0.98360656,0.18032787,-0.18032787,0.98360656,95.039732,-62.141278)"
         id="g5854">
        <g
           id="g5846">
          <path
             transform="matrix(1.8155339,0,0,1.8155339,764.34299,-165.43544)"
             d="m -154.55334,361.92291 c 0,28.73143 -23.29143,52.02286 -52.02286,52.02286 -28.73143,0 -52.02286,-23.29143 -52.02286,-52.02286 0,-28.73143 23.29143,-52.02286 52.02286,-52.02286 28.73143,0 52.02286,23.29143 52.02286,52.02286 z"
             sodipodi:ry="52.022858"
             sodipodi:rx="52.022858"
             sodipodi:cy="361.92291"
             sodipodi:cx="-206.5762"
             id="path5822"
             style="fill:#f2f2f2;fill-opacity:1;stroke:none"
             sodipodi:type="arc" />
          <path
             id="path5822-4"
             d="M 320.15625,427.3125 C 307.64214,440.75543 298.9914,457.8383 296,476.8125 l 186.59375,0 c -2.9914,-18.9742 -11.64214,-36.05707 -24.15625,-49.5 l -138.28125,0 z"
             style="fill:#1300ff;fill-opacity:1;stroke:none"
             inkscape:connector-curvature="0" />
        </g>
      </g>
    </g>
  </g>
</svg>
