<?xml version="1.0" encoding="UTF-8" standalone="no"?>
<!-- Created with Inkscape (http://www.inkscape.org/) -->

<svg
   xmlns:dc="http://purl.org/dc/elements/1.1/"
   xmlns:cc="http://creativecommons.org/ns#"
   xmlns:rdf="http://www.w3.org/1999/02/22-rdf-syntax-ns#"
   xmlns:svg="http://www.w3.org/2000/svg"
   xmlns="http://www.w3.org/2000/svg"
   xmlns:sodipodi="http://sodipodi.sourceforge.net/DTD/sodipodi-0.dtd"
   xmlns:inkscape="http://www.inkscape.org/namespaces/inkscape"
   width="363.70157"
   height="583.3858"
   id="svg9911"
   version="1.1"
   inkscape:version="0.48.4 r9939"
   sodipodi:docname="Neues Dokument 2">
  <defs
     id="defs9913" />
  <sodipodi:namedview
     id="base"
     pagecolor="#ffffff"
     bordercolor="#666666"
     borderopacity="1.0"
     inkscape:pageopacity="0.0"
     inkscape:pageshadow="2"
     inkscape:zoom="0.7"
     inkscape:cx="-18.22424"
     inkscape:cy="259.98318"
     inkscape:document-units="mm"
     inkscape:current-layer="layer1"
     showgrid="false"
     fit-margin-top="10"
     fit-margin-left="10"
     fit-margin-right="10"
     fit-margin-bottom="10"
     inkscape:window-width="1680"
     inkscape:window-height="1028"
     inkscape:window-x="1272"
     inkscape:window-y="-8"
     inkscape:window-maximized="1" />
  <metadata
     id="metadata9916">
    <rdf:RDF>
      <cc:Work
         rdf:about="">
        <dc:format>image/svg+xml</dc:format>
        <dc:type
           rdf:resource="http://purl.org/dc/dcmitype/StillImage" />
        <dc:title></dc:title>
      </cc:Work>
    </rdf:RDF>
  </metadata>
  <g
     inkscape:label="Ebene 1"
     inkscape:groupmode="layer"
     id="layer1"
     transform="translate(-195.94598,-142.70489)">
    <g
       id="g10351"
       transform="translate(98.571429,-230)">
      <rect
         y="383.11453"
         x="107.78457"
         height="562.56653"
         width="342.88153"
         id="rect17865"
         style="fill:#d7d7d7;fill-opacity:1;stroke:#000000;stroke-width:0.81928289;stroke-linecap:round;stroke-linejoin:round;stroke-miterlimit:4;stroke-opacity:1;stroke-dasharray:none;stroke-dashoffset:0;display:inline" />
      <rect
         y="383.17426"
         x="139.45631"
         height="32.055702"
         width="279.53806"
         id="rect17907"
         style="fill:#d4cb5c;fill-opacity:1;fill-rule:nonzero;stroke:#000000;stroke-width:0.86271113;stroke-linecap:round;stroke-linejoin:round;stroke-miterlimit:4;stroke-opacity:1;stroke-dasharray:none;stroke-dashoffset:0;display:inline" />
      <rect
         y="383.17426"
         x="107.84347"
         height="32.055702"
         width="31.612812"
         id="rect17913"
         style="fill:#d7d7d7;fill-opacity:1;fill-rule:nonzero;stroke:#000000;stroke-width:0.93783098;stroke-linecap:round;stroke-linejoin:round;stroke-miterlimit:4;stroke-opacity:1;stroke-dasharray:none;stroke-dashoffset:0;display:inline" />
      <rect
         y="383.17426"
         x="418.99438"
         height="32.055702"
         width="31.612812"
         id="rect17913-8"
         style="fill:#d7d7d7;fill-opacity:1;fill-rule:nonzero;stroke:#000000;stroke-width:0.93783098;stroke-linecap:round;stroke-linejoin:round;stroke-miterlimit:4;stroke-opacity:1;stroke-dasharray:none;stroke-dashoffset:0;display:inline" />
      <path
         transform="matrix(0.2876523,-0.29168226,0.2876523,0.29168226,-1481.196,908.42184)"
         d="m 3685.4404,1916.661 c 0,12.6921 -10.2889,22.981 -22.9809,22.981 -12.6921,0 -22.981,-10.2889 -22.981,-22.981 0,-12.692 10.2889,-22.981 22.981,-22.981 12.692,0 22.9809,10.289 22.9809,22.981 z"
         sodipodi:ry="22.98097"
         sodipodi:rx="22.98097"
         sodipodi:cy="1916.661"
         sodipodi:cx="3662.4595"
         id="path17943-2"
         style="fill:#9b9b9b;fill-opacity:1;fill-rule:nonzero;stroke:#000000;stroke-width:2;stroke-linecap:round;stroke-linejoin:round;stroke-miterlimit:4;stroke-opacity:1;stroke-dasharray:none;stroke-dashoffset:0;display:inline"
         sodipodi:type="arc" />
      <path
         id="path17943"
         d="m 117.03355,392.50479 c -0.52498,0.53234 -0.96547,1.10902 -1.3394,1.72277 l 4.90802,4.97678 -4.90806,4.97687 c 0.37397,0.61372 0.81442,1.19043 1.33939,1.72273 0.52498,0.53234 1.10264,0.98802 1.70792,1.36727 l 4.90806,-4.97682 4.90811,4.97682 c 0.60523,-0.37921 1.17398,-0.82582 1.69892,-1.35816 0.52494,-0.53229 0.97433,-1.11808 1.34835,-1.73184 l -4.90806,-4.97682 4.9081,-4.97687 c -0.37402,-0.61375 -0.82341,-1.19951 -1.34839,-1.73185 -0.52494,-0.53232 -1.09369,-0.97894 -1.69892,-1.35815 l -4.90811,4.97686 -4.90806,-4.97682 c -0.60528,0.37921 -1.18294,0.83494 -1.70787,1.36723 z"
         style="fill:#5a5a5a;fill-opacity:1;fill-rule:nonzero;stroke:#000000;stroke-width:0.40964144;stroke-linecap:round;stroke-linejoin:round;stroke-miterlimit:4;stroke-opacity:1;stroke-dasharray:none;stroke-dashoffset:0;display:inline"
         inkscape:connector-curvature="0" />
      <path
         transform="matrix(-0.39294034,0.10676312,-0.10528805,-0.39844536,2075.7293,771.87249)"
         d="m 3685.4404,1916.661 c 0,12.6921 -10.2889,22.981 -22.9809,22.981 -12.6921,0 -22.981,-10.2889 -22.981,-22.981 0,-12.692 10.2889,-22.981 22.981,-22.981 12.692,0 22.9809,10.289 22.9809,22.981 z"
         sodipodi:ry="22.98097"
         sodipodi:rx="22.98097"
         sodipodi:cy="1916.661"
         sodipodi:cx="3662.4595"
         id="path17943-2-5"
         style="fill:#9b9b9b;fill-opacity:1;fill-rule:nonzero;stroke:#000000;stroke-width:2;stroke-linecap:round;stroke-linejoin:round;stroke-miterlimit:4;stroke-opacity:1;stroke-dasharray:none;stroke-dashoffset:0;display:inline"
         sodipodi:type="arc" />
      <path
         id="path17943-1"
         d="m 437.22743,408.35951 c 0.71715,-0.19482 1.38296,-0.47095 2.00944,-0.81287 l -1.79648,-6.79842 6.70458,-1.82165 c -0.0212,-0.72114 -0.11834,-1.44388 -0.31048,-2.17103 -0.19217,-0.72716 -0.46778,-1.41472 -0.80493,-2.05001 l -6.70455,1.82165 -1.79647,-6.79847 c -0.71117,0.0215 -1.42392,0.11995 -2.14104,0.31477 -0.71712,0.19486 -1.39512,0.47429 -2.02168,0.81622 l 1.79648,6.79847 -6.70459,1.82164 c 0.0212,0.72117 0.12164,1.45634 0.31378,2.1835 0.19217,0.72715 0.46447,1.40229 0.80163,2.03759 l 6.70458,-1.82169 1.79648,6.79847 c 0.71122,-0.0215 1.43618,-0.12334 2.15325,-0.31817 z"
         style="fill:#5a5a5a;fill-opacity:1;fill-rule:nonzero;stroke:#000000;stroke-width:0.40964144;stroke-linecap:round;stroke-linejoin:round;stroke-miterlimit:4;stroke-opacity:1;stroke-dasharray:none;stroke-dashoffset:0;display:inline"
         inkscape:connector-curvature="0" />
      <rect
         y="383.11453"
         x="375.64651"
         height="32.115421"
         width="31.741619"
         id="rect18044"
         style="fill:#5a5a5a;fill-opacity:1;fill-rule:nonzero;stroke:#000000;stroke-width:0.81928289;stroke-linecap:round;stroke-linejoin:round;stroke-miterlimit:4;stroke-opacity:1;stroke-dasharray:none;stroke-dashoffset:0;display:inline" />
      <rect
         y="383.11453"
         x="310.53601"
         height="32.115421"
         width="31.741619"
         id="rect18044-3"
         style="fill:#5a5a5a;fill-opacity:1;fill-rule:nonzero;stroke:#000000;stroke-width:0.81928289;stroke-linecap:round;stroke-linejoin:round;stroke-miterlimit:4;stroke-opacity:1;stroke-dasharray:none;stroke-dashoffset:0;display:inline" />
      <rect
         y="383.11453"
         x="343.09128"
         height="32.115421"
         width="31.741619"
         id="rect18044-5"
         style="fill:#5a5a5a;fill-opacity:1;fill-rule:nonzero;stroke:#000000;stroke-width:0.81928289;stroke-linecap:round;stroke-linejoin:round;stroke-miterlimit:4;stroke-opacity:1;stroke-dasharray:none;stroke-dashoffset:0;display:inline" />
      <rect
         y="383.11453"
         x="339.98386"
         height="32.115421"
         width="5.4012046"
         id="rect18044-7-7"
         style="fill:#5a5a5a;fill-opacity:1;fill-rule:nonzero;stroke:#000000;stroke-width:0.81928289;stroke-linecap:round;stroke-linejoin:round;stroke-miterlimit:4;stroke-opacity:1;stroke-dasharray:none;stroke-dashoffset:0;display:inline" />
      <rect
         y="383.11453"
         x="372.53912"
         height="32.115421"
         width="5.4012046"
         id="rect18044-7"
         style="fill:#5a5a5a;fill-opacity:1;fill-rule:nonzero;stroke:#000000;stroke-width:0.81928289;stroke-linecap:round;stroke-linejoin:round;stroke-miterlimit:4;stroke-opacity:1;stroke-dasharray:none;stroke-dashoffset:0;display:inline" />
      <rect
         y="383.11453"
         x="405.09442"
         height="32.115421"
         width="5.4012046"
         id="rect18044-7-8"
         style="fill:#5a5a5a;fill-opacity:1;fill-rule:nonzero;stroke:#000000;stroke-width:0.81928289;stroke-linecap:round;stroke-linejoin:round;stroke-miterlimit:4;stroke-opacity:1;stroke-dasharray:none;stroke-dashoffset:0;display:inline" />
      <rect
         y="383.11453"
         x="277.98071"
         height="32.115421"
         width="31.741619"
         id="rect18044-0"
         style="fill:#5a5a5a;fill-opacity:1;fill-rule:nonzero;stroke:#000000;stroke-width:0.81928289;stroke-linecap:round;stroke-linejoin:round;stroke-miterlimit:4;stroke-opacity:1;stroke-dasharray:none;stroke-dashoffset:0;display:inline" />
      <rect
         y="383.11453"
         x="307.42859"
         height="32.115421"
         width="5.4012046"
         id="rect18044-7-3"
         style="fill:#5a5a5a;fill-opacity:1;fill-rule:nonzero;stroke:#000000;stroke-width:0.81928289;stroke-linecap:round;stroke-linejoin:round;stroke-miterlimit:4;stroke-opacity:1;stroke-dasharray:none;stroke-dashoffset:0;display:inline" />
      <rect
         y="383.11453"
         x="245.42549"
         height="32.115421"
         width="31.741619"
         id="rect18044-9"
         style="fill:#5a5a5a;fill-opacity:1;fill-rule:nonzero;stroke:#000000;stroke-width:0.81928289;stroke-linecap:round;stroke-linejoin:round;stroke-miterlimit:4;stroke-opacity:1;stroke-dasharray:none;stroke-dashoffset:0;display:inline" />
      <rect
         y="383.11453"
         x="274.87332"
         height="32.115421"
         width="5.4012046"
         id="rect18044-7-6"
         style="fill:#5a5a5a;fill-opacity:1;fill-rule:nonzero;stroke:#000000;stroke-width:0.81928289;stroke-linecap:round;stroke-linejoin:round;stroke-miterlimit:4;stroke-opacity:1;stroke-dasharray:none;stroke-dashoffset:0;display:inline" />
      <rect
         y="383.11453"
         x="242.31807"
         height="32.115421"
         width="5.4012046"
         id="rect18044-7-63"
         style="fill:#5a5a5a;fill-opacity:1;fill-rule:nonzero;stroke:#000000;stroke-width:0.81928289;stroke-linecap:round;stroke-linejoin:round;stroke-miterlimit:4;stroke-opacity:1;stroke-dasharray:none;stroke-dashoffset:0;display:inline" />
      <path
         transform="matrix(0.36687885,0,0,0.37201876,-1216.2376,-315.54158)"
         d="m 3776.3037,1921.2572 c 0,17.7689 -14.4045,32.1734 -32.1733,32.1734 -17.7689,0 -32.1734,-14.4045 -32.1734,-32.1734 0,-17.7689 14.4045,-32.1734 32.1734,-32.1734 17.7688,0 32.1733,14.4045 32.1733,32.1734 z"
         sodipodi:ry="32.173359"
         sodipodi:rx="32.173359"
         sodipodi:cy="1921.2572"
         sodipodi:cx="3744.1304"
         id="path18539"
         style="fill:#9b9b9b;fill-opacity:1;fill-rule:nonzero;stroke:#000000;stroke-width:1.1088177;stroke-linecap:round;stroke-linejoin:round;stroke-miterlimit:4;stroke-opacity:1;stroke-dasharray:none;stroke-dashoffset:0;display:inline"
         sodipodi:type="arc" />
      <path
         transform="matrix(0.31808416,0,0,0.32254047,-1033.5439,-220.48111)"
         d="m 3776.3037,1921.2572 c 0,17.7689 -14.4045,32.1734 -32.1733,32.1734 -17.7689,0 -32.1734,-14.4045 -32.1734,-32.1734 0,-17.7689 14.4045,-32.1734 32.1734,-32.1734 17.7688,0 32.1733,14.4045 32.1733,32.1734 z"
         sodipodi:ry="32.173359"
         sodipodi:rx="32.173359"
         sodipodi:cy="1921.2572"
         sodipodi:cx="3744.1304"
         id="path18539-6"
         style="fill:#e3e3e3;fill-opacity:1;fill-rule:nonzero;stroke:#000000;stroke-width:1.27891243;stroke-linecap:round;stroke-linejoin:round;stroke-miterlimit:4;stroke-opacity:1;stroke-dasharray:none;stroke-dashoffset:0;display:inline"
         sodipodi:type="arc" />
      <path
         inkscape:connector-curvature="0"
         style="fill:#bfbfbf;fill-opacity:1;fill-rule:nonzero;stroke:#000000;stroke-width:0.40964144;stroke-linecap:round;stroke-linejoin:round;stroke-miterlimit:4;stroke-opacity:1;stroke-dasharray:none;stroke-dashoffset:0;display:inline"
         d="m 162.16039,401.98197 c 0.21793,-0.38277 0.38134,-0.77766 0.50138,-1.1833 l -3.529,-2.06606 2.0375,-3.57849 c -0.30404,-0.2904 -0.64025,-0.54957 -1.01773,-0.77055 -0.37747,-0.22098 -0.77332,-0.39039 -1.17338,-0.5122 l -2.03751,3.57848 -3.52908,-2.06605 c -0.28635,0.30831 -0.54199,0.64924 -0.75991,1.03199 -0.21792,0.38273 -0.38496,0.78413 -0.50508,1.18983 l 3.52904,2.06605 -2.0375,3.57848 c 0.30404,0.29045 0.64664,0.55338 1.02412,0.77439 0.37746,0.22097 0.76694,0.38659 1.16699,0.50837 l 2.03751,-3.57849 3.529,2.06601 c 0.28647,-0.3083 0.54572,-0.65575 0.76365,-1.03846 z"
         id="path17943-1-5-6-3-1" />
      <text
         transform="scale(0.99306784,1.0069805)"
         sodipodi:linespacing="125%"
         id="text18592"
         y="432.5816"
         x="170.23451"
         style="font-size:8.19282913px;font-style:normal;font-variant:normal;font-weight:normal;font-stretch:normal;text-align:center;line-height:125%;letter-spacing:0px;word-spacing:0px;text-anchor:middle;fill:#000000;fill-opacity:1;stroke:none;display:inline;font-family:Ubuntu;-inkscape-font-specification:Ubuntu"
         xml:space="preserve"><tspan
           style="font-size:16.38565826px"
           y="432.5816"
           x="170.23451"
           id="tspan18594"
           sodipodi:role="line">V ADJ</tspan></text>
      <rect
         ry="4.9500122"
         y="419.84375"
         x="140.40756"
         height="20.212549"
         width="56.138645"
         id="rect18598"
         style="fill:none;stroke:#000000;stroke-width:0.81928289;stroke-linecap:round;stroke-linejoin:round;stroke-miterlimit:4;stroke-opacity:1;stroke-dasharray:none;stroke-dashoffset:0;display:inline" />
      <text
         transform="scale(0.99306784,1.0069805)"
         sodipodi:linespacing="125%"
         id="text18592-4"
         y="432.5816"
         x="264.35651"
         style="font-size:8.19282913px;font-style:normal;font-variant:normal;font-weight:normal;font-stretch:normal;text-align:center;line-height:125%;letter-spacing:0px;word-spacing:0px;text-anchor:middle;fill:#000000;fill-opacity:1;stroke:none;display:inline;font-family:Ubuntu;-inkscape-font-specification:Ubuntu"
         xml:space="preserve"><tspan
           style="font-size:16.38565826px"
           y="432.5816"
           x="264.35651"
           id="tspan18594-2"
           sodipodi:role="line">V+</tspan></text>
      <rect
         ry="4.9500122"
         y="419.84375"
         x="250.1492"
         height="20.212549"
         width="56.138645"
         id="rect18598-0"
         style="fill:none;stroke:#000000;stroke-width:0.81928289;stroke-linecap:round;stroke-linejoin:round;stroke-miterlimit:4;stroke-opacity:1;stroke-dasharray:none;stroke-dashoffset:0;display:inline" />
      <text
         transform="scale(0.99306784,1.0069805)"
         sodipodi:linespacing="125%"
         id="text18592-4-9"
         y="432.64709"
         x="296.15836"
         style="font-size:8.19282913px;font-style:normal;font-variant:normal;font-weight:normal;font-stretch:normal;text-align:center;line-height:125%;letter-spacing:0px;word-spacing:0px;text-anchor:middle;fill:#000000;fill-opacity:1;stroke:none;display:inline;font-family:Ubuntu;-inkscape-font-specification:Ubuntu"
         xml:space="preserve"><tspan
           style="font-size:16.38565826px"
           y="432.64709"
           x="296.15836"
           id="tspan18594-2-7"
           sodipodi:role="line">V-</tspan></text>
      <text
         transform="scale(0.99306784,1.0069805)"
         sodipodi:linespacing="125%"
         id="text18592-4-0"
         y="432.5816"
         x="361.83151"
         style="font-size:8.19282913px;font-style:normal;font-variant:normal;font-weight:normal;font-stretch:normal;text-align:center;line-height:125%;letter-spacing:0px;word-spacing:0px;text-anchor:middle;fill:#000000;fill-opacity:1;stroke:none;display:inline;font-family:Ubuntu;-inkscape-font-specification:Ubuntu"
         xml:space="preserve"><tspan
           style="font-size:16.38565826px"
           y="432.5816"
           x="361.83151"
           id="tspan18594-2-1"
           sodipodi:role="line">N</tspan></text>
      <rect
         ry="4.9500122"
         y="419.84375"
         x="346.94855"
         height="20.212549"
         width="56.138645"
         id="rect18598-0-6"
         style="fill:none;stroke:#000000;stroke-width:0.81928289;stroke-linecap:round;stroke-linejoin:round;stroke-miterlimit:4;stroke-opacity:1;stroke-dasharray:none;stroke-dashoffset:0;display:inline" />
      <text
         transform="scale(0.99306784,1.0069805)"
         sodipodi:linespacing="125%"
         id="text18592-4-9-5"
         y="432.64709"
         x="393.63333"
         style="font-size:8.19282913px;font-style:normal;font-variant:normal;font-weight:normal;font-stretch:normal;text-align:center;line-height:125%;letter-spacing:0px;word-spacing:0px;text-anchor:middle;fill:#000000;fill-opacity:1;stroke:none;display:inline;font-family:Ubuntu;-inkscape-font-specification:Ubuntu"
         xml:space="preserve"><tspan
           style="font-size:16.38565826px"
           y="432.64709"
           x="393.63333"
           id="tspan18594-2-7-7"
           sodipodi:role="line">L</tspan></text>
      <text
         transform="scale(0.99306784,1.0069805)"
         xml:space="preserve"
         style="font-size:8.19282913px;font-style:normal;font-variant:normal;font-weight:normal;font-stretch:normal;text-align:center;line-height:125%;letter-spacing:0px;word-spacing:0px;text-anchor:middle;fill:#000000;fill-opacity:1;stroke:none;display:inline;font-family:Ubuntu;-inkscape-font-specification:Ubuntu"
         x="379.25406"
         y="435.89975"
         id="text18784"
         sodipodi:linespacing="125%"><tspan
           sodipodi:role="line"
           id="tspan18786"
           x="379.25406"
           y="435.89975">(AC)</tspan></text>
      <rect
         ry="4.9500122"
         y="419.77777"
         x="314.39029"
         height="20.212549"
         width="24.065414"
         id="rect18598-0-0"
         style="fill:none;stroke:#000000;stroke-width:0.81928289;stroke-linecap:round;stroke-linejoin:round;stroke-miterlimit:4;stroke-opacity:1;stroke-dasharray:none;stroke-dashoffset:0;display:inline" />
      <path
         style="fill:none;stroke:#000000;stroke-width:1.22892451;stroke-linecap:butt;stroke-linejoin:miter;stroke-miterlimit:4;stroke-opacity:1;stroke-dasharray:none;display:inline"
         d="m 318.70569,426.06471 15.67704,0"
         id="path18722"
         inkscape:connector-curvature="0" />
      <path
         style="fill:none;stroke:#000000;stroke-width:1.22892451;stroke-linecap:butt;stroke-linejoin:miter;stroke-miterlimit:4;stroke-opacity:1;stroke-dasharray:none;display:inline"
         d="m 326.54419,426.06471 0,-4.59397"
         id="path18724"
         inkscape:connector-curvature="0" />
      <path
         inkscape:connector-curvature="0"
         id="path18722-4"
         d="m 321.05305,429.88407 10.73986,0"
         style="fill:none;stroke:#000000;stroke-width:1.22892451;stroke-linecap:butt;stroke-linejoin:miter;stroke-miterlimit:4;stroke-opacity:1;stroke-dasharray:none;display:inline" />
      <path
         inkscape:connector-curvature="0"
         id="path18722-4-6"
         d="m 323.6823,433.69619 5.48137,0"
         style="fill:none;stroke:#000000;stroke-width:1.22892451;stroke-linecap:butt;stroke-linejoin:miter;stroke-miterlimit:4;stroke-opacity:1;stroke-dasharray:none;display:inline" />
      <g
         transform="matrix(0.40680178,0,0,0.412501,-1364.9951,-718.98901)"
         id="g20316"
         style="display:inline">
        <rect
           style="fill:#9b9b9b;fill-opacity:1;fill-rule:nonzero;stroke:#000000;stroke-width:2;stroke-linecap:round;stroke-linejoin:round;stroke-miterlimit:4;stroke-opacity:1;stroke-dasharray:none;stroke-dashoffset:0;display:inline"
           id="rect18090-1-82"
           width="60.5"
           height="60.5"
           x="3967.499"
           y="2680.4375"
           ry="7.75" />
        <path
           style="fill:none;stroke:#000000;stroke-width:0.5;stroke-linecap:butt;stroke-linejoin:miter;stroke-miterlimit:4;stroke-opacity:1;stroke-dasharray:none"
           d="m 3993.749,2679.4373 0,61.4789"
           id="path18148-35"
           inkscape:connector-curvature="0" />
        <path
           style="fill:none;stroke:#000000;stroke-width:0.5;stroke-linecap:butt;stroke-linejoin:miter;stroke-miterlimit:4;stroke-opacity:1;stroke-dasharray:none;display:inline"
           d="m 4001.499,2679.9479 0,61.4789"
           id="path18148-4-9"
           inkscape:connector-curvature="0" />
        <path
           style="fill:none;stroke:#000000;stroke-width:0.5;stroke-linecap:butt;stroke-linejoin:miter;stroke-miterlimit:4;stroke-opacity:1;stroke-dasharray:none"
           d="m 3966.7543,2714.5624 61.4789,0"
           id="path18148-3-4"
           inkscape:connector-curvature="0" />
        <path
           style="fill:none;stroke:#000000;stroke-width:0.5;stroke-linecap:butt;stroke-linejoin:miter;stroke-miterlimit:4;stroke-opacity:1;stroke-dasharray:none;display:inline"
           d="m 3967.2649,2706.8124 61.4789,0"
           id="path18148-4-2-0"
           inkscape:connector-curvature="0" />
        <path
           sodipodi:type="arc"
           style="fill:#9b9b9b;fill-opacity:1;fill-rule:nonzero;stroke:#000000;stroke-width:2;stroke-linecap:round;stroke-linejoin:round;stroke-miterlimit:4;stroke-opacity:1;stroke-dasharray:none;stroke-dashoffset:0;display:inline"
           id="path17943-2-5-1-1-6"
           sodipodi:cx="3662.4595"
           sodipodi:cy="1916.661"
           sodipodi:rx="22.98097"
           sodipodi:ry="22.98097"
           d="m 3685.4404,1916.661 c 0,12.6921 -10.2889,22.981 -22.9809,22.981 -12.6921,0 -22.981,-10.2889 -22.981,-22.981 0,-12.692 10.2889,-22.981 22.981,-22.981 12.692,0 22.9809,10.289 22.9809,22.981 z"
           transform="matrix(-0.5,0.8660254,-0.8660254,-0.5,7488.8534,497.23791)" />
        <path
           inkscape:connector-curvature="0"
           style="fill:#5a5a5a;fill-opacity:1;fill-rule:nonzero;stroke:#000000;stroke-width:1;stroke-linecap:round;stroke-linejoin:round;stroke-miterlimit:4;stroke-opacity:1;stroke-dasharray:none;stroke-dashoffset:0"
           d="m 4017.6619,2722.166 c 0.9125,-1.5805 1.5965,-3.2111 2.0993,-4.8862 l -14.7764,-8.5312 8.5312,-14.7766 c -1.273,-1.1992 -2.6807,-2.2694 -4.2612,-3.1819 -1.5805,-0.9125 -3.2381,-1.612 -4.9133,-2.115 l -8.5312,14.7766 -14.7766,-8.5313 c -1.1992,1.2731 -2.2694,2.6808 -3.1819,4.2613 -0.9125,1.5804 -1.612,3.238 -2.1149,4.9131 l 14.7765,8.5313 -8.5313,14.7766 c 1.2732,1.1993 2.7078,2.2851 4.2883,3.1976 1.5805,0.9125 3.2112,1.5964 4.8862,2.0993 l 8.5313,-14.7766 14.7765,8.5312 c 1.1993,-1.2731 2.285,-2.7078 3.1975,-4.2882 z"
           id="path17943-1-5-6-3" />
      </g>
      <g
         transform="matrix(0.40680178,0,0,0.412501,-1364.9951,-718.98901)"
         id="g20325"
         style="display:inline">
        <rect
           style="fill:#9b9b9b;fill-opacity:1;fill-rule:nonzero;stroke:#000000;stroke-width:2;stroke-linecap:round;stroke-linejoin:round;stroke-miterlimit:4;stroke-opacity:1;stroke-dasharray:none;stroke-dashoffset:0;display:inline"
           id="rect18090-1-89"
           width="60.5"
           height="60.5"
           x="4047.5264"
           y="2680.4375"
           ry="7.75" />
        <path
           style="fill:none;stroke:#000000;stroke-width:0.5;stroke-linecap:butt;stroke-linejoin:miter;stroke-miterlimit:4;stroke-opacity:1;stroke-dasharray:none"
           d="m 4073.7764,2679.4376 0,61.4789"
           id="path18148-44"
           inkscape:connector-curvature="0" />
        <path
           style="fill:none;stroke:#000000;stroke-width:0.5;stroke-linecap:butt;stroke-linejoin:miter;stroke-miterlimit:4;stroke-opacity:1;stroke-dasharray:none;display:inline"
           d="m 4081.5264,2679.9482 0,61.4789"
           id="path18148-4-6"
           inkscape:connector-curvature="0" />
        <path
           style="fill:none;stroke:#000000;stroke-width:0.5;stroke-linecap:butt;stroke-linejoin:miter;stroke-miterlimit:4;stroke-opacity:1;stroke-dasharray:none"
           d="m 4046.7817,2714.5626 61.4789,0"
           id="path18148-3-6"
           inkscape:connector-curvature="0" />
        <path
           style="fill:none;stroke:#000000;stroke-width:0.5;stroke-linecap:butt;stroke-linejoin:miter;stroke-miterlimit:4;stroke-opacity:1;stroke-dasharray:none;display:inline"
           d="m 4047.2923,2706.8126 61.4789,0"
           id="path18148-4-2-6"
           inkscape:connector-curvature="0" />
        <path
           sodipodi:type="arc"
           style="fill:#9b9b9b;fill-opacity:1;fill-rule:nonzero;stroke:#000000;stroke-width:2;stroke-linecap:round;stroke-linejoin:round;stroke-miterlimit:4;stroke-opacity:1;stroke-dasharray:none;stroke-dashoffset:0;display:inline"
           id="path17943-2-5-1-1-8"
           sodipodi:cx="3662.4595"
           sodipodi:cy="1916.661"
           sodipodi:rx="22.98097"
           sodipodi:ry="22.98097"
           d="m 3685.4404,1916.661 c 0,12.6921 -10.2889,22.981 -22.9809,22.981 -12.6921,0 -22.981,-10.2889 -22.981,-22.981 0,-12.692 10.2889,-22.981 22.981,-22.981 12.692,0 22.9809,10.289 22.9809,22.981 z"
           transform="matrix(-0.5,0.8660254,-0.8660254,-0.5,7568.8808,497.23815)" />
        <path
           inkscape:connector-curvature="0"
           style="fill:#5a5a5a;fill-opacity:1;fill-rule:nonzero;stroke:#000000;stroke-width:1;stroke-linecap:round;stroke-linejoin:round;stroke-miterlimit:4;stroke-opacity:1;stroke-dasharray:none;stroke-dashoffset:0"
           d="m 4097.6893,2722.1663 c 0.9125,-1.5805 1.5965,-3.2112 2.0993,-4.8863 l -14.7764,-8.5312 8.5312,-14.7765 c -1.273,-1.1992 -2.6807,-2.2695 -4.2612,-3.182 -1.5805,-0.9125 -3.2381,-1.612 -4.9133,-2.1149 l -8.5312,14.7765 -14.7766,-8.5312 c -1.1992,1.273 -2.2694,2.6807 -3.1819,4.2612 -0.9125,1.5804 -1.612,3.238 -2.1149,4.9132 l 14.7765,8.5312 -8.5313,14.7767 c 1.2732,1.1992 2.7078,2.285 4.2883,3.1975 1.5805,0.9125 3.2112,1.5965 4.8862,2.0994 l 8.5313,-14.7767 14.7765,8.5312 c 1.1993,-1.2731 2.285,-2.7077 3.1975,-4.2881 z"
           id="path17943-1-5-6-4" />
      </g>
      <g
         transform="matrix(0.40680178,0,0,0.412501,-1364.9951,-718.98901)"
         id="g20334"
         style="display:inline">
        <rect
           style="fill:#9b9b9b;fill-opacity:1;fill-rule:nonzero;stroke:#000000;stroke-width:2;stroke-linecap:round;stroke-linejoin:round;stroke-miterlimit:4;stroke-opacity:1;stroke-dasharray:none;stroke-dashoffset:0;display:inline"
           id="rect18090-1-3"
           width="60.5"
           height="60.5"
           x="4127.5537"
           y="2680.4375"
           ry="7.75" />
        <path
           style="fill:none;stroke:#000000;stroke-width:0.5;stroke-linecap:butt;stroke-linejoin:miter;stroke-miterlimit:4;stroke-opacity:1;stroke-dasharray:none"
           d="m 4153.8038,2679.4373 0,61.4789"
           id="path18148-7"
           inkscape:connector-curvature="0" />
        <path
           style="fill:none;stroke:#000000;stroke-width:0.5;stroke-linecap:butt;stroke-linejoin:miter;stroke-miterlimit:4;stroke-opacity:1;stroke-dasharray:none;display:inline"
           d="m 4161.5538,2679.9479 0,61.4789"
           id="path18148-4-4"
           inkscape:connector-curvature="0" />
        <path
           style="fill:none;stroke:#000000;stroke-width:0.5;stroke-linecap:butt;stroke-linejoin:miter;stroke-miterlimit:4;stroke-opacity:1;stroke-dasharray:none"
           d="m 4126.8091,2714.5624 61.4789,0"
           id="path18148-3-7"
           inkscape:connector-curvature="0" />
        <path
           style="fill:none;stroke:#000000;stroke-width:0.5;stroke-linecap:butt;stroke-linejoin:miter;stroke-miterlimit:4;stroke-opacity:1;stroke-dasharray:none;display:inline"
           d="m 4127.3197,2706.8124 61.4789,0"
           id="path18148-4-2-7"
           inkscape:connector-curvature="0" />
        <path
           sodipodi:type="arc"
           style="fill:#9b9b9b;fill-opacity:1;fill-rule:nonzero;stroke:#000000;stroke-width:2;stroke-linecap:round;stroke-linejoin:round;stroke-miterlimit:4;stroke-opacity:1;stroke-dasharray:none;stroke-dashoffset:0;display:inline"
           id="path17943-2-5-1-1-3"
           sodipodi:cx="3662.4595"
           sodipodi:cy="1916.661"
           sodipodi:rx="22.98097"
           sodipodi:ry="22.98097"
           d="m 3685.4404,1916.661 c 0,12.6921 -10.2889,22.981 -22.9809,22.981 -12.6921,0 -22.981,-10.2889 -22.981,-22.981 0,-12.692 10.2889,-22.981 22.981,-22.981 12.692,0 22.9809,10.289 22.9809,22.981 z"
           transform="matrix(-0.5,0.8660254,-0.8660254,-0.5,7648.9082,497.23791)" />
        <path
           inkscape:connector-curvature="0"
           style="fill:#5a5a5a;fill-opacity:1;fill-rule:nonzero;stroke:#000000;stroke-width:1;stroke-linecap:round;stroke-linejoin:round;stroke-miterlimit:4;stroke-opacity:1;stroke-dasharray:none;stroke-dashoffset:0"
           d="m 4177.7167,2722.166 c 0.9125,-1.5805 1.5965,-3.2111 2.0993,-4.8862 l -14.7764,-8.5312 8.5312,-14.7766 c -1.273,-1.1992 -2.6807,-2.2694 -4.2612,-3.1819 -1.5805,-0.9125 -3.2381,-1.612 -4.9133,-2.115 l -8.5312,14.7766 -14.7766,-8.5313 c -1.1992,1.2731 -2.2694,2.6808 -3.1819,4.2613 -0.9125,1.5804 -1.612,3.238 -2.1149,4.9131 l 14.7765,8.5313 -8.5313,14.7766 c 1.2732,1.1993 2.7078,2.2851 4.2883,3.1976 1.5805,0.9125 3.2112,1.5964 4.8862,2.0993 l 8.5313,-14.7766 14.7765,8.5312 c 1.1993,-1.2731 2.285,-2.7078 3.1975,-4.2882 z"
           id="path17943-1-5-6-1" />
      </g>
      <g
         transform="matrix(0.40680178,0,0,0.412501,-1364.9951,-718.98901)"
         id="g20343"
         style="display:inline">
        <rect
           style="fill:#9b9b9b;fill-opacity:1;fill-rule:nonzero;stroke:#000000;stroke-width:2;stroke-linecap:round;stroke-linejoin:round;stroke-miterlimit:4;stroke-opacity:1;stroke-dasharray:none;stroke-dashoffset:0;display:inline"
           id="rect18090-1-8"
           width="60.5"
           height="60.5"
           x="4207.5811"
           y="2680.4375"
           ry="7.75" />
        <path
           style="fill:none;stroke:#000000;stroke-width:0.5;stroke-linecap:butt;stroke-linejoin:miter;stroke-miterlimit:4;stroke-opacity:1;stroke-dasharray:none"
           d="m 4233.831,2679.4376 0,61.4789"
           id="path18148-2"
           inkscape:connector-curvature="0" />
        <path
           style="fill:none;stroke:#000000;stroke-width:0.5;stroke-linecap:butt;stroke-linejoin:miter;stroke-miterlimit:4;stroke-opacity:1;stroke-dasharray:none;display:inline"
           d="m 4241.581,2679.9482 0,61.4789"
           id="path18148-4-7"
           inkscape:connector-curvature="0" />
        <path
           style="fill:none;stroke:#000000;stroke-width:0.5;stroke-linecap:butt;stroke-linejoin:miter;stroke-miterlimit:4;stroke-opacity:1;stroke-dasharray:none"
           d="m 4206.8363,2714.5626 61.4789,0"
           id="path18148-3-5"
           inkscape:connector-curvature="0" />
        <path
           style="fill:none;stroke:#000000;stroke-width:0.5;stroke-linecap:butt;stroke-linejoin:miter;stroke-miterlimit:4;stroke-opacity:1;stroke-dasharray:none;display:inline"
           d="m 4207.3469,2706.8126 61.4789,0"
           id="path18148-4-2-4"
           inkscape:connector-curvature="0" />
        <path
           sodipodi:type="arc"
           style="fill:#9b9b9b;fill-opacity:1;fill-rule:nonzero;stroke:#000000;stroke-width:2;stroke-linecap:round;stroke-linejoin:round;stroke-miterlimit:4;stroke-opacity:1;stroke-dasharray:none;stroke-dashoffset:0;display:inline"
           id="path17943-2-5-1-1-1"
           sodipodi:cx="3662.4595"
           sodipodi:cy="1916.661"
           sodipodi:rx="22.98097"
           sodipodi:ry="22.98097"
           d="m 3685.4404,1916.661 c 0,12.6921 -10.2889,22.981 -22.9809,22.981 -12.6921,0 -22.981,-10.2889 -22.981,-22.981 0,-12.692 10.2889,-22.981 22.981,-22.981 12.692,0 22.9809,10.289 22.9809,22.981 z"
           transform="matrix(-0.5,0.8660254,-0.8660254,-0.5,7728.9354,497.23812)" />
        <path
           inkscape:connector-curvature="0"
           style="fill:#5a5a5a;fill-opacity:1;fill-rule:nonzero;stroke:#000000;stroke-width:1;stroke-linecap:round;stroke-linejoin:round;stroke-miterlimit:4;stroke-opacity:1;stroke-dasharray:none;stroke-dashoffset:0"
           d="m 4257.7439,2722.1662 c 0.9125,-1.5805 1.5965,-3.2111 2.0993,-4.8862 l -14.7764,-8.5312 8.5312,-14.7766 c -1.273,-1.1992 -2.6807,-2.2694 -4.2612,-3.1819 -1.5805,-0.9125 -3.2381,-1.612 -4.9133,-2.115 l -8.5312,14.7766 -14.7766,-8.5313 c -1.1992,1.2731 -2.2694,2.6808 -3.1819,4.2613 -0.9125,1.5804 -1.612,3.238 -2.1149,4.9132 l 14.7765,8.5312 -8.5313,14.7767 c 1.2732,1.1992 2.7078,2.285 4.2883,3.1975 1.5805,0.9125 3.2112,1.5964 4.8862,2.0994 l 8.5313,-14.7767 14.7765,8.5312 c 1.1993,-1.2731 2.285,-2.7078 3.1975,-4.2882 z"
           id="path17943-1-5-6-2" />
      </g>
      <g
         transform="matrix(0.40680178,0,0,0.412501,-1364.9951,-718.98901)"
         id="g20352"
         style="display:inline">
        <rect
           style="fill:#9b9b9b;fill-opacity:1;fill-rule:nonzero;stroke:#000000;stroke-width:2;stroke-linecap:round;stroke-linejoin:round;stroke-miterlimit:4;stroke-opacity:1;stroke-dasharray:none;stroke-dashoffset:0;display:inline"
           id="rect18090-1"
           width="60.5"
           height="60.5"
           x="4287.6084"
           y="2680.4375"
           ry="7.75" />
        <path
           style="fill:none;stroke:#000000;stroke-width:0.5;stroke-linecap:butt;stroke-linejoin:miter;stroke-miterlimit:4;stroke-opacity:1;stroke-dasharray:none"
           d="m 4313.8583,2679.4374 0,61.4789"
           id="path18148"
           inkscape:connector-curvature="0" />
        <path
           style="fill:none;stroke:#000000;stroke-width:0.5;stroke-linecap:butt;stroke-linejoin:miter;stroke-miterlimit:4;stroke-opacity:1;stroke-dasharray:none;display:inline"
           d="m 4321.6083,2679.948 0,61.4789"
           id="path18148-4"
           inkscape:connector-curvature="0" />
        <path
           style="fill:none;stroke:#000000;stroke-width:0.5;stroke-linecap:butt;stroke-linejoin:miter;stroke-miterlimit:4;stroke-opacity:1;stroke-dasharray:none"
           d="m 4286.8636,2714.5624 61.4789,0"
           id="path18148-3"
           inkscape:connector-curvature="0" />
        <path
           style="fill:none;stroke:#000000;stroke-width:0.5;stroke-linecap:butt;stroke-linejoin:miter;stroke-miterlimit:4;stroke-opacity:1;stroke-dasharray:none;display:inline"
           d="m 4287.3742,2706.8124 61.4789,0"
           id="path18148-4-2"
           inkscape:connector-curvature="0" />
        <path
           sodipodi:type="arc"
           style="fill:#9b9b9b;fill-opacity:1;fill-rule:nonzero;stroke:#000000;stroke-width:2;stroke-linecap:round;stroke-linejoin:round;stroke-miterlimit:4;stroke-opacity:1;stroke-dasharray:none;stroke-dashoffset:0;display:inline"
           id="path17943-2-5-1-1"
           sodipodi:cx="3662.4595"
           sodipodi:cy="1916.661"
           sodipodi:rx="22.98097"
           sodipodi:ry="22.98097"
           d="m 3685.4404,1916.661 c 0,12.6921 -10.2889,22.981 -22.9809,22.981 -12.6921,0 -22.981,-10.2889 -22.981,-22.981 0,-12.692 10.2889,-22.981 22.981,-22.981 12.692,0 22.9809,10.289 22.9809,22.981 z"
           transform="matrix(-0.5,0.8660254,-0.8660254,-0.5,7808.9627,497.23798)" />
        <path
           inkscape:connector-curvature="0"
           style="fill:#5a5a5a;fill-opacity:1;fill-rule:nonzero;stroke:#000000;stroke-width:1;stroke-linecap:round;stroke-linejoin:round;stroke-miterlimit:4;stroke-opacity:1;stroke-dasharray:none;stroke-dashoffset:0"
           d="m 4337.7712,2722.1661 c 0.9125,-1.5805 1.5965,-3.2111 2.0993,-4.8862 l -14.7764,-8.5312 8.5312,-14.7766 c -1.273,-1.1992 -2.6807,-2.2694 -4.2612,-3.1819 -1.5805,-0.9125 -3.2381,-1.612 -4.9133,-2.115 l -8.5312,14.7766 -14.7766,-8.5313 c -1.1992,1.2731 -2.2694,2.6807 -3.1819,4.2612 -0.9125,1.5805 -1.612,3.2381 -2.1149,4.9132 l 14.7765,8.5313 -8.5313,14.7766 c 1.2732,1.1993 2.7078,2.285 4.2883,3.1975 1.5805,0.9125 3.2112,1.5965 4.8862,2.0994 l 8.5313,-14.7766 14.7765,8.5312 c 1.1993,-1.2731 2.285,-2.7078 3.1975,-4.2882 z"
           id="path17943-1-5-6" />
      </g>
    </g>
  </g>
</svg>
