<?xml version="1.0" encoding="UTF-8" standalone="no"?>
<!-- Created with Inkscape (http://www.inkscape.org/) -->

<svg
   xmlns:dc="http://purl.org/dc/elements/1.1/"
   xmlns:cc="http://creativecommons.org/ns#"
   xmlns:rdf="http://www.w3.org/1999/02/22-rdf-syntax-ns#"
   xmlns:svg="http://www.w3.org/2000/svg"
   xmlns="http://www.w3.org/2000/svg"
   xmlns:sodipodi="http://sodipodi.sourceforge.net/DTD/sodipodi-0.dtd"
   xmlns:inkscape="http://www.inkscape.org/namespaces/inkscape"
   width="388.83078"
   height="82.951561"
   id="svg2"
   version="1.1"
   inkscape:version="0.48.4 r9939"
   sodipodi:docname="proximity-sensor.svg"
   inkscape:export-filename="proximity-sensor.png"
   inkscape:export-xdpi="600"
   inkscape:export-ydpi="600">
  <defs
     id="defs4" />
  <sodipodi:namedview
     id="base"
     pagecolor="#ffffff"
     bordercolor="#666666"
     borderopacity="1.0"
     inkscape:pageopacity="0.0"
     inkscape:pageshadow="2"
     inkscape:zoom="1"
     inkscape:cx="197.88141"
     inkscape:cy="240.11728"
     inkscape:document-units="mm"
     inkscape:current-layer="layer2"
     showgrid="false"
     showguides="true"
     inkscape:guide-bbox="true"
     inkscape:snap-bbox="true"
     inkscape:object-nodes="true"
     inkscape:snap-bbox-edge-midpoints="true"
     inkscape:window-width="1680"
     inkscape:window-height="1028"
     inkscape:window-x="1272"
     inkscape:window-y="-8"
     inkscape:window-maximized="1"
     inkscape:snap-object-midpoints="true"
     fit-margin-top="10"
     fit-margin-left="10"
     fit-margin-right="10"
     fit-margin-bottom="10"
     inkscape:snap-global="true"
     inkscape:snap-bbox-midpoints="true" />
  <metadata
     id="metadata7">
    <rdf:RDF>
      <cc:Work
         rdf:about="">
        <dc:format>image/svg+xml</dc:format>
        <dc:type
           rdf:resource="http://purl.org/dc/dcmitype/StillImage" />
        <dc:title></dc:title>
      </cc:Work>
    </rdf:RDF>
  </metadata>
  <g
     inkscape:groupmode="layer"
     id="layer2"
     inkscape:label="sensor"
     transform="translate(-88.116962,-478.85095)">
    <g
       id="g4097">
      <path
         inkscape:connector-curvature="0"
         id="path3859-4"
         d="m 449.65153,514.39222 15.54788,0.008"
         style="fill:none;stroke:#b08200;stroke-width:3.4966805;stroke-linecap:butt;stroke-linejoin:miter;stroke-miterlimit:4;stroke-opacity:1;stroke-dasharray:none"
         sodipodi:nodetypes="cc" />
      <path
         inkscape:connector-curvature="0"
         id="path3859-4-1"
         d="m 449.65153,525.90668 15.54788,0.008"
         style="fill:none;stroke:#b08200;stroke-width:3.4966805;stroke-linecap:butt;stroke-linejoin:miter;stroke-miterlimit:4;stroke-opacity:1;stroke-dasharray:none"
         sodipodi:nodetypes="cc" />
      <path
         sodipodi:nodetypes="cc"
         inkscape:connector-curvature="0"
         id="path3792-7"
         d="m 386.26206,523.05428 c 25.74997,-0.0884 37.65344,2.90988 66.74,2.90988"
         style="fill:none;stroke:#191919;stroke-width:5.31496048;stroke-linecap:butt;stroke-linejoin:miter;stroke-miterlimit:4;stroke-opacity:1;stroke-dasharray:none" />
      <path
         inkscape:connector-curvature="0"
         id="path3859-4-2"
         d="m 449.65153,502.87782 15.54788,0.008"
         style="fill:none;stroke:#b08200;stroke-width:3.4966805;stroke-linecap:butt;stroke-linejoin:miter;stroke-miterlimit:4;stroke-opacity:1;stroke-dasharray:none"
         sodipodi:nodetypes="cc" />
      <path
         sodipodi:nodetypes="cc"
         inkscape:connector-curvature="0"
         id="path3792-3-9"
         d="m 386.26206,512.16961 c 25.66158,0 37.65344,-8.82718 66.74,-9.20218"
         style="fill:none;stroke:#623900;stroke-width:5.31496048;stroke-linecap:butt;stroke-linejoin:miter;stroke-miterlimit:4;stroke-opacity:1;stroke-dasharray:none" />
      <path
         inkscape:connector-curvature="0"
         id="path3859-4-1-2"
         d="m 449.65153,537.74877 15.54788,0.008"
         style="fill:none;stroke:#b08200;stroke-width:3.4966805;stroke-linecap:butt;stroke-linejoin:miter;stroke-miterlimit:4;stroke-opacity:1;stroke-dasharray:none"
         sodipodi:nodetypes="cc" />
      <path
         style="fill:none;stroke:#0069a1;stroke-width:5.31496048;stroke-linecap:butt;stroke-linejoin:miter;stroke-miterlimit:4;stroke-opacity:1;stroke-dasharray:none"
         d="m 386.26206,528.43059 c 25.66158,0 37.65344,8.88969 66.74,9.26469"
         id="path3792-3-9-7"
         inkscape:connector-curvature="0"
         sodipodi:nodetypes="cc" />
      <g
         id="g4093">
        <path
           sodipodi:nodetypes="cc"
           inkscape:connector-curvature="0"
           id="path3792-7-1"
           d="m 386.26206,517.58098 c 25.74997,0.0884 37.65345,-3.07529 66.74,-3.07529"
           style="fill:none;stroke:#6d6d6d;stroke-width:5.31496048;stroke-linecap:butt;stroke-linejoin:miter;stroke-miterlimit:4;stroke-opacity:1;stroke-dasharray:none" />
        <path
           sodipodi:nodetypes="cc"
           inkscape:connector-curvature="0"
           id="path3792-7-1-4"
           d="m 386.26206,517.58098 c 25.74997,0.0884 37.12312,-3.07529 66.20967,-3.07529"
           style="fill:none;stroke:#ffffff;stroke-width:4.25196838;stroke-linecap:butt;stroke-linejoin:miter;stroke-miterlimit:4;stroke-opacity:1;stroke-dasharray:none" />
      </g>
    </g>
    <g
       id="g3820">
      <rect
         ry="0.44636378"
         y="508.63904"
         x="240.46834"
         height="23.32836"
         width="149.39685"
         id="rect4176"
         style="fill:#282828;fill-opacity:1;stroke:none" />
      <path
         sodipodi:nodetypes="cscccccc"
         inkscape:connector-curvature="0"
         id="path3900"
         d="m 98.328369,502.63517 c 0,3.20344 0,14.8974 0,18.09292 0,3.19553 0,14.03229 0,17.09411 0.0034,0.85566 0.329474,1.15093 1.025165,1.15093 l 12.543686,0 c 0,-12.34216 0,-26.13069 0,-37.33984 l -12.543686,0 c -0.80197,0 -1.021859,0.19159 -1.025165,1.00188 z"
         style="fill:#009952;fill-opacity:1;stroke:#008649;stroke-width:0.42281494;stroke-miterlimit:4;stroke-opacity:1;stroke-dasharray:none" />
      <g
         transform="matrix(1.0768764,0,0,1.0768764,-210.51279,-42.213275)"
         id="g4168">
        <path
           style="fill:#282828;fill-opacity:1;stroke:none"
           d="m 469.40526,508.03125 0,14.3125 0,14.34375 c 10.06888,0 20.13383,-2.25 30.20271,-2.25 1.78983,0.01 2.45354,-0.56341 2.45354,-2.15625 l 0,-9.9375 0,-9.90625 c 0,-1.59284 -0.66371,-2.16625 -2.45354,-2.15625 -10.06888,0 -20.13383,-2.25 -30.20271,-2.25 z"
           id="rect3946-9-7"
           inkscape:connector-curvature="0" />
        <path
           style="fill:#1e1e1e;fill-opacity:1;stroke:none"
           d="m 469.59375,508.03125 0,14.3125 0,14.34375 c 1.24752,0 2.50559,-0.0313 3.75,-0.0937 l 0,-10.96875 c 0,-0.6183 0.47545,-1.125 1.09375,-1.125 l 0.28125,0 c 0.6183,0 1.125,0.5067 1.125,1.125 l 0,10.78125 c 0.74184,-0.0548 1.47573,-0.0909 2.21875,-0.15625 l 0,-10.625 c 0,-0.6183 0.5067,-1.125 1.125,-1.125 l 0.25,0 c 0.6183,0 1.125,0.5067 1.125,1.125 l 0,10.40625 c 0.7901,-0.0802 1.58453,-0.16375 2.375,-0.25 l 0,-10.15625 c 0,-0.6183 0.5067,-1.125 1.125,-1.125 l 0.28125,0 c 0.6183,0 1.09375,0.5067 1.09375,1.125 l 0,9.875 c 0.74875,-0.083 1.5013,-0.16962 2.25,-0.25 l 0,-9.625 c 0,-0.6183 0.47545,-1.125 1.09375,-1.125 l 0.28125,0 c 0.6183,0 1.125,0.5067 1.125,1.125 l 0,9.375 c 0.71883,-0.0697 1.43748,-0.15901 2.15625,-0.21875 l 0,-9.15625 c 0,-0.6183 0.5067,-1.125 1.125,-1.125 l 0.25,0 c 0.6183,0 1.125,0.5067 1.125,1.125 l 0,9 c 1.65403,-0.1015 3.31454,-0.1875 4.96875,-0.1875 1.78983,0.01 2.4375,-0.56341 2.4375,-2.15625 l 0,-9.9375 0,-9.90625 c 0,-1.59284 -0.64767,-2.16625 -2.4375,-2.15625 -1.65421,0 -3.31399,-0.086 -4.96875,-0.1875 l 0,8.59375 c 0,0.6183 -0.5067,1.125 -1.125,1.125 l -0.25,0 c -0.6183,0 -1.125,-0.5067 -1.125,-1.125 l 0,-8.75 c -0.71919,-0.0597 -1.43714,-0.14904 -2.15625,-0.21875 l 0,8.96875 c 0,0.6183 -0.5067,1.125 -1.125,1.125 l -0.28125,0 c -0.6183,0 -1.09375,-0.5067 -1.09375,-1.125 l 0,-9.21875 c -0.74884,-0.0804 -1.50117,-0.16701 -2.25,-0.25 l 0,9.46875 c 0,0.6183 -0.47545,1.125 -1.09375,1.125 l -0.28125,0 c -0.6183,0 -1.125,-0.5067 -1.125,-1.125 l 0,-9.75 c -0.79049,-0.0863 -1.58489,-0.16984 -2.375,-0.25 l 0,10 c 0,0.6183 -0.5067,1.125 -1.125,1.125 l -0.25,0 c -0.6183,0 -1.125,-0.5067 -1.125,-1.125 l 0,-10.21875 c -0.74302,-0.0653 -1.47692,-0.1015 -2.21875,-0.15625 l 0,10.375 c 0,0.6183 -0.5067,1.125 -1.125,1.125 l -0.28125,0 c -0.6183,0 -1.09375,-0.5067 -1.09375,-1.125 l 0,-10.5625 c -1.24442,-0.0624 -2.50248,-0.0937 -3.75,-0.0937 z"
           id="rect3946-9"
           inkscape:connector-curvature="0" />
      </g>
      <path
         sodipodi:nodetypes="ccccccc"
         inkscape:connector-curvature="0"
         id="rect3946"
         d="m 279.8765,502.23447 15.70848,0 c 1.33185,0.0142 1.98274,0.75843 1.96858,1.96277 l 0,32.13444 c 0.003,1.15474 -0.63229,2.04028 -1.96858,2.04029 l -15.70848,0 z"
         style="fill:#1e1e1e;fill-opacity:1;stroke:#141414;stroke-width:0.44883919;stroke-miterlimit:4;stroke-opacity:1;stroke-dasharray:none" />
      <path
         sodipodi:nodetypes="ccccccccccccc"
         inkscape:connector-curvature="0"
         id="rect3821"
         d="m 114.117,499.01712 c -2.00082,0.0189 -2.63999,0.74748 -2.6426,2.61617 l 0,18.68314 0,18.6567 c 0.003,2.07633 0.4719,2.63505 2.6426,2.61617 l 82.66032,0 82.66032,0 c 2.02876,0 2.69598,-0.50733 2.6426,-2.61617 l 0,-18.6567 0,-18.68314 c 0.0534,-2.05546 -0.56044,-2.58947 -2.6426,-2.61617 l -82.66032,0 z"
         style="fill:#6f6f6f;fill-opacity:1;stroke:#5b5b5b;stroke-width:0.42281494;stroke-miterlimit:4;stroke-opacity:1;stroke-dasharray:none" />
      <path
         sodipodi:nodetypes="ccccccccc"
         inkscape:connector-curvature="0"
         id="path4187-3"
         d="m 141.90842,489.03806 -10.72573,0 c -1.98071,0.11212 -3.84932,3.73719 -3.77457,5.23207 l 0,26.03308 0,26.03308 c -0.0528,1.26844 1.39623,5.23206 3.77457,5.23206 l 10.72573,0 0,-31.26514 z"
         style="fill:#6f6f6f;fill-opacity:1;stroke:#494949;stroke-width:0.35433072;stroke-linecap:butt;stroke-linejoin:miter;stroke-miterlimit:4;stroke-opacity:1;stroke-dasharray:none" />
      <path
         id="path4187-3-2"
         d="m 131.18815,489.02812 c -1.98071,0.11211 -3.85365,3.73745 -3.77891,5.23233 l 0,4.28101 c 1.33269,2.01444 3.40221,4.80767 5.44375,6.07796 l 9.06409,0 0,-15.5913 -10.72893,0 z"
         style="fill:#6f6f6f;fill-opacity:1;stroke:#494949;stroke-width:0.35433072;stroke-linecap:butt;stroke-linejoin:miter;stroke-miterlimit:4;stroke-opacity:1;stroke-dasharray:none"
         inkscape:connector-curvature="0" />
      <path
         id="path4187-3-2-2"
         d="m 131.17949,551.56835 c -1.98071,-0.11211 -3.85365,-3.73745 -3.77891,-5.23233 l 0,-4.281 c 1.33269,-2.01445 3.40221,-4.80768 5.44375,-6.07797 l 9.06409,0 0,15.5913 -10.72893,0 z"
         style="fill:#6f6f6f;fill-opacity:1;stroke:#494949;stroke-width:0.35433072;stroke-linecap:butt;stroke-linejoin:miter;stroke-miterlimit:4;stroke-opacity:1;stroke-dasharray:none"
         inkscape:connector-curvature="0" />
      <path
         inkscape:connector-curvature="0"
         id="path4187-3-2-4"
         d="m 132.85299,504.65491 c -2.04154,1.27029 -4.11106,4.06352 -5.44375,6.07797 0,3.44829 0.0138,6.09859 0.0264,9.51333 -0.0126,3.41475 -0.0264,6.06505 -0.0264,9.51334 1.33269,2.01444 3.40221,4.80768 5.44375,6.07796 l 9.06409,0 0,-15.5913 0,-15.5913 -9.06409,0 z"
         style="fill:#6f6f6f;fill-opacity:1;stroke:#494949;stroke-width:0.35433072;stroke-linecap:butt;stroke-linejoin:miter;stroke-miterlimit:4;stroke-opacity:1;stroke-dasharray:none" />
      <path
         sodipodi:nodetypes="ccccccccc"
         inkscape:connector-curvature="0"
         id="path4187-3-6"
         d="m 145.31606,489.09506 10.72573,0 c 1.98071,0.11211 3.84932,3.73719 3.77457,5.23207 l 0,26.03308 0,26.03308 c 0.0529,1.26844 -1.39623,5.23206 -3.77457,5.23206 l -10.72573,0 0,-31.26514 z"
         style="fill:#6f6f6f;fill-opacity:1;stroke:#494949;stroke-width:0.35433072;stroke-linecap:butt;stroke-linejoin:miter;stroke-miterlimit:4;stroke-opacity:1;stroke-dasharray:none" />
      <path
         inkscape:connector-curvature="0"
         id="path4187-3-2-22"
         d="m 156.03633,489.08512 c 1.98071,0.11211 3.85365,3.73745 3.77891,5.23233 l 0,4.281 c -1.33269,2.01445 -3.40221,4.80768 -5.44375,6.07797 l -9.06409,0 0,-15.5913 10.72893,0 z"
         style="fill:#6f6f6f;fill-opacity:1;stroke:#494949;stroke-width:0.35433072;stroke-linecap:butt;stroke-linejoin:miter;stroke-miterlimit:4;stroke-opacity:1;stroke-dasharray:none" />
      <path
         id="path4187-3-2-2-1"
         d="m 156.04499,551.62535 c 1.98071,-0.11211 3.85365,-3.73746 3.77891,-5.23233 l 0,-4.28101 c -1.33269,-2.01444 -3.40221,-4.80767 -5.44375,-6.07796 l -9.06409,0 0,15.5913 10.72893,0 z"
         style="fill:#6f6f6f;fill-opacity:1;stroke:#494949;stroke-width:0.35433072;stroke-linecap:butt;stroke-linejoin:miter;stroke-miterlimit:4;stroke-opacity:1;stroke-dasharray:none"
         inkscape:connector-curvature="0" />
      <path
         inkscape:connector-curvature="0"
         id="path4187-3-2-4-2"
         d="m 154.37149,504.71191 c 2.04154,1.27029 4.11106,4.06352 5.44375,6.07796 0,3.4483 -0.0138,6.09859 -0.0264,9.51334 0.0126,3.41475 0.0264,6.06504 0.0264,9.51334 -1.33269,2.01444 -3.40221,4.80767 -5.44375,6.07796 l -9.06409,0 0,-15.5913 0,-15.5913 9.06409,0 z"
         style="fill:#6f6f6f;fill-opacity:1;stroke:#494949;stroke-width:0.35433072;stroke-linecap:butt;stroke-linejoin:miter;stroke-miterlimit:4;stroke-opacity:1;stroke-dasharray:none" />
    </g>
    <g
       id="g4231"
       transform="matrix(1.1338533,0,0,1.1338533,-163.73897,-70.919091)">
      <rect
         ry="1.5816039"
         y="502.92752"
         x="354.68979"
         height="37"
         width="33.1451"
         id="rect4229"
         style="fill:#ffffff;fill-opacity:1;fill-rule:nonzero;stroke:#000000;stroke-width:0.35433072;stroke-linecap:round;stroke-linejoin:round;stroke-miterlimit:4;stroke-opacity:1;stroke-dasharray:none;stroke-dashoffset:0" />
      <g
         transform="translate(0,2.3125)"
         id="g4219">
        <text
           xml:space="preserve"
           style="font-size:5px;font-style:normal;font-variant:normal;font-weight:normal;font-stretch:normal;text-align:center;line-height:125%;letter-spacing:0px;word-spacing:0px;text-anchor:middle;fill:#ffffff;fill-opacity:1;stroke:none;font-family:Ubuntu;-inkscape-font-specification:Ubuntu"
           x="370.91751"
           y="510.94476"
           id="text4109"
           sodipodi:linespacing="125%"><tspan
             sodipodi:role="line"
             id="tspan4111"
             x="370.91751"
             y="510.94476"
             style="font-size:10px;fill:#623900;fill-opacity:1">24VDC</tspan></text>
        <text
           xml:space="preserve"
           style="font-size:5px;font-style:normal;font-variant:normal;font-weight:normal;font-stretch:normal;text-align:center;line-height:125%;letter-spacing:0px;word-spacing:0px;text-anchor:middle;fill:#ffffff;fill-opacity:1;stroke:#000000;stroke-width:0.17716534;stroke-miterlimit:4;stroke-opacity:1;stroke-dasharray:none;font-family:Ubuntu;-inkscape-font-specification:Ubuntu"
           x="379.76517"
           y="518.55048"
           id="text4109-4"
           sodipodi:linespacing="125%"><tspan
             sodipodi:role="line"
             id="tspan4111-5"
             x="379.76517"
             y="518.55048"
             style="font-size:10px;fill:#ffffff;fill-opacity:1;stroke:#000000;stroke-width:0.17716534;stroke-miterlimit:4;stroke-opacity:1;stroke-dasharray:none">NC</tspan></text>
        <text
           xml:space="preserve"
           style="font-size:5px;font-style:normal;font-variant:normal;font-weight:normal;font-stretch:normal;text-align:center;line-height:125%;letter-spacing:0px;word-spacing:0px;text-anchor:middle;fill:#000000;fill-opacity:1;stroke:none;font-family:Ubuntu;-inkscape-font-specification:Ubuntu"
           x="379.30618"
           y="526.29077"
           id="text4109-5"
           sodipodi:linespacing="125%"><tspan
             sodipodi:role="line"
             id="tspan4111-1"
             x="379.30618"
             y="526.29077"
             style="font-size:10px;fill:#000000;fill-opacity:1">NO</tspan></text>
        <text
           xml:space="preserve"
           style="font-size:5px;font-style:normal;font-variant:normal;font-weight:normal;font-stretch:normal;text-align:center;line-height:125%;letter-spacing:0px;word-spacing:0px;text-anchor:middle;fill:#0069a1;fill-opacity:1;stroke:none;font-family:Ubuntu;-inkscape-font-specification:Ubuntu"
           x="373.73978"
           y="534.05377"
           id="text4109-7"
           sodipodi:linespacing="125%"><tspan
             sodipodi:role="line"
             id="tspan4111-11"
             x="373.73978"
             y="534.05377"
             style="font-size:10px;fill:#0069a1;fill-opacity:1">0VDC</tspan></text>
      </g>
    </g>
  </g>
</svg>
